<svg xmlns="http://www.w3.org/2000/svg" width="1440" height="1024" fill="none" viewBox="0 0 1440 1024"><rect width="1440" height="1024" fill="#fff"/><rect width="1287" height="906" x="76.5" y="58.5" stroke="#000" stroke-width="3"/><rect width="236" height="34" x="602" y="43" fill="#fff"/><path fill="#000" d="M689.578 62.7617C689 63.5898 688.191 64.2109 687.152 64.625C686.121 65.0312 684.918 65.2344 683.543 65.2344C682.152 65.2344 680.918 64.9102 679.84 64.2617C678.762 63.6055 677.926 62.6758 677.332 61.4727C676.746 60.2695 676.445 58.875 676.43 57.2891V55.8008C676.43 53.2305 677.027 51.2383 678.223 49.8242C679.426 48.4102 681.113 47.7031 683.285 47.7031C685.066 47.7031 686.5 48.1602 687.586 49.0742C688.672 49.9805 689.336 51.2695 689.578 52.9414H687.328C686.906 50.6836 685.562 49.5547 683.297 49.5547C681.789 49.5547 680.645 50.0859 679.863 51.1484C679.09 52.2031 678.699 53.7344 678.691 55.7422V57.1367C678.691 59.0508 679.129 60.5742 680.004 61.707C680.879 62.832 682.062 63.3945 683.555 63.3945C684.398 63.3945 685.137 63.3008 685.77 63.1133C686.402 62.9258 686.926 62.6094 687.34 62.1641V58.332H683.391V56.5039H689.578V62.7617ZM698.262 65.2344C696.543 65.2344 695.145 64.6719 694.066 63.5469C692.988 62.4141 692.449 60.9023 692.449 59.0117V58.6133C692.449 57.3555 692.688 56.2344 693.164 55.25C693.648 54.2578 694.32 53.4844 695.18 52.9297C696.047 52.3672 696.984 52.0859 697.992 52.0859C699.641 52.0859 700.922 52.6289 701.836 53.7148C702.75 54.8008 703.207 56.3555 703.207 58.3789V59.2812H694.617C694.648 60.5312 695.012 61.543 695.707 62.3164C696.41 63.082 697.301 63.4648 698.379 63.4648C699.145 63.4648 699.793 63.3086 700.324 62.9961C700.855 62.6836 701.32 62.2695 701.719 61.7539L703.043 62.7852C701.98 64.418 700.387 65.2344 698.262 65.2344ZM697.992 53.8672C697.117 53.8672 696.383 54.1875 695.789 54.8281C695.195 55.4609 694.828 56.3516 694.688 57.5H701.039V57.3359C700.977 56.2344 700.68 55.3828 700.148 54.7812C699.617 54.1719 698.898 53.8672 697.992 53.8672ZM711.855 54.2656C711.527 54.2109 711.172 54.1836 710.789 54.1836C709.367 54.1836 708.402 54.7891 707.895 56V65H705.727V52.3203H707.836L707.871 53.7852C708.582 52.6523 709.59 52.0859 710.895 52.0859C711.316 52.0859 711.637 52.1406 711.855 52.25V54.2656ZM724.594 58.8008C724.594 60.7383 724.148 62.2969 723.258 63.4766C722.367 64.6484 721.172 65.2344 719.672 65.2344C718.07 65.2344 716.832 64.668 715.957 63.5352L715.852 65H713.859V47H716.027V53.7148C716.902 52.6289 718.109 52.0859 719.648 52.0859C721.188 52.0859 722.395 52.668 723.27 53.832C724.152 54.9961 724.594 56.5898 724.594 58.6133V58.8008ZM722.426 58.5547C722.426 57.0781 722.141 55.9375 721.57 55.1328C721 54.3281 720.18 53.9258 719.109 53.9258C717.68 53.9258 716.652 54.5898 716.027 55.918V61.4023C716.691 62.7305 717.727 63.3945 719.133 63.3945C720.172 63.3945 720.98 62.9922 721.559 62.1875C722.137 61.3828 722.426 60.1719 722.426 58.5547ZM735.164 65C735.039 64.75 734.938 64.3047 734.859 63.6641C733.852 64.7109 732.648 65.2344 731.25 65.2344C730 65.2344 728.973 64.8828 728.168 64.1797C727.371 63.4688 726.973 62.5703 726.973 61.4844C726.973 60.1641 727.473 59.1406 728.473 58.4141C729.48 57.6797 730.895 57.3125 732.715 57.3125H734.824V56.3164C734.824 55.5586 734.598 54.957 734.145 54.5117C733.691 54.0586 733.023 53.832 732.141 53.832C731.367 53.832 730.719 54.0273 730.195 54.418C729.672 54.8086 729.41 55.2812 729.41 55.8359H727.23C727.23 55.2031 727.453 54.5938 727.898 54.0078C728.352 53.4141 728.961 52.9453 729.727 52.6016C730.5 52.2578 731.348 52.0859 732.27 52.0859C733.73 52.0859 734.875 52.4531 735.703 53.1875C736.531 53.9141 736.961 54.918 736.992 56.1992V62.0352C736.992 63.1992 737.141 64.125 737.438 64.8125V65H735.164ZM731.566 63.3477C732.246 63.3477 732.891 63.1719 733.5 62.8203C734.109 62.4688 734.551 62.0117 734.824 61.4492V58.8477H733.125C730.469 58.8477 729.141 59.625 729.141 61.1797C729.141 61.8594 729.367 62.3906 729.82 62.7734C730.273 63.1562 730.855 63.3477 731.566 63.3477ZM742.441 52.3203L742.512 53.9141C743.48 52.6953 744.746 52.0859 746.309 52.0859C748.988 52.0859 750.34 53.5977 750.363 56.6211V65H748.195V56.6094C748.188 55.6953 747.977 55.0195 747.562 54.582C747.156 54.1445 746.52 53.9258 745.652 53.9258C744.949 53.9258 744.332 54.1133 743.801 54.4883C743.27 54.8633 742.855 55.3555 742.559 55.9648V65H740.391V52.3203H742.441ZM753.117 58.5547C753.117 56.5781 753.574 55.0078 754.488 53.8438C755.402 52.6719 756.613 52.0859 758.121 52.0859C759.668 52.0859 760.875 52.6328 761.742 53.7266L761.848 52.3203H763.828V64.6953C763.828 66.3359 763.34 67.6289 762.363 68.5742C761.395 69.5195 760.09 69.9922 758.449 69.9922C757.535 69.9922 756.641 69.7969 755.766 69.4062C754.891 69.0156 754.223 68.4805 753.762 67.8008L754.887 66.5C755.816 67.6484 756.953 68.2227 758.297 68.2227C759.352 68.2227 760.172 67.9258 760.758 67.332C761.352 66.7383 761.648 65.9023 761.648 64.8242V63.7344C760.781 64.7344 759.598 65.2344 758.098 65.2344C756.613 65.2344 755.41 64.6367 754.488 63.4414C753.574 62.2461 753.117 60.6172 753.117 58.5547ZM755.297 58.8008C755.297 60.2305 755.59 61.3555 756.176 62.1758C756.762 62.9883 757.582 63.3945 758.637 63.3945C760.004 63.3945 761.008 62.7734 761.648 61.5312V55.7422C760.984 54.5312 759.988 53.9258 758.66 53.9258C757.605 53.9258 756.781 54.3359 756.188 55.1562C755.594 55.9766 755.297 57.1914 755.297 58.8008Z"/><rect width="288" height="777" x="102" y="157" fill="#000"/><rect width="288" height="777" x="418" y="157" fill="#000"/><rect width="288" height="777" x="734" y="157" fill="#000"/><rect width="288" height="777" x="1050" y="157" fill="#000"/><path fill="#000" d="M119.98 127V109.938H125.559C127.41 109.938 128.801 110.32 129.73 111.086C130.668 111.852 131.137 112.984 131.137 114.484C131.137 115.281 130.91 115.988 130.457 116.605C130.004 117.215 129.387 117.688 128.605 118.023C129.527 118.281 130.254 118.773 130.785 119.5C131.324 120.219 131.594 121.078 131.594 122.078C131.594 123.609 131.098 124.812 130.105 125.688C129.113 126.562 127.711 127 125.898 127H119.98ZM122.23 119.02V125.16H125.945C126.992 125.16 127.816 124.891 128.418 124.352C129.027 123.805 129.332 123.055 129.332 122.102C129.332 120.047 128.215 119.02 125.98 119.02H122.23ZM122.23 117.215H125.629C126.613 117.215 127.398 116.969 127.984 116.477C128.578 115.984 128.875 115.316 128.875 114.473C128.875 113.535 128.602 112.855 128.055 112.434C127.508 112.004 126.676 111.789 125.559 111.789H122.23V117.215ZM142.422 127C142.297 126.75 142.195 126.305 142.117 125.664C141.109 126.711 139.906 127.234 138.508 127.234C137.258 127.234 136.23 126.883 135.426 126.18C134.629 125.469 134.23 124.57 134.23 123.484C134.23 122.164 134.73 121.141 135.73 120.414C136.738 119.68 138.152 119.312 139.973 119.312H142.082V118.316C142.082 117.559 141.855 116.957 141.402 116.512C140.949 116.059 140.281 115.832 139.398 115.832C138.625 115.832 137.977 116.027 137.453 116.418C136.93 116.809 136.668 117.281 136.668 117.836H134.488C134.488 117.203 134.711 116.594 135.156 116.008C135.609 115.414 136.219 114.945 136.984 114.602C137.758 114.258 138.605 114.086 139.527 114.086C140.988 114.086 142.133 114.453 142.961 115.188C143.789 115.914 144.219 116.918 144.25 118.199V124.035C144.25 125.199 144.398 126.125 144.695 126.812V127H142.422ZM138.824 125.348C139.504 125.348 140.148 125.172 140.758 124.82C141.367 124.469 141.809 124.012 142.082 123.449V120.848H140.383C137.727 120.848 136.398 121.625 136.398 123.18C136.398 123.859 136.625 124.391 137.078 124.773C137.531 125.156 138.113 125.348 138.824 125.348ZM155.031 123.637C155.031 123.051 154.809 122.598 154.363 122.277C153.926 121.949 153.156 121.668 152.055 121.434C150.961 121.199 150.09 120.918 149.441 120.59C148.801 120.262 148.324 119.871 148.012 119.418C147.707 118.965 147.555 118.426 147.555 117.801C147.555 116.762 147.992 115.883 148.867 115.164C149.75 114.445 150.875 114.086 152.242 114.086C153.68 114.086 154.844 114.457 155.734 115.199C156.633 115.941 157.082 116.891 157.082 118.047H154.902C154.902 117.453 154.648 116.941 154.141 116.512C153.641 116.082 153.008 115.867 152.242 115.867C151.453 115.867 150.836 116.039 150.391 116.383C149.945 116.727 149.723 117.176 149.723 117.73C149.723 118.254 149.93 118.648 150.344 118.914C150.758 119.18 151.504 119.434 152.582 119.676C153.668 119.918 154.547 120.207 155.219 120.543C155.891 120.879 156.387 121.285 156.707 121.762C157.035 122.23 157.199 122.805 157.199 123.484C157.199 124.617 156.746 125.527 155.84 126.215C154.934 126.895 153.758 127.234 152.312 127.234C151.297 127.234 150.398 127.055 149.617 126.695C148.836 126.336 148.223 125.836 147.777 125.195C147.34 124.547 147.121 123.848 147.121 123.098H149.289C149.328 123.824 149.617 124.402 150.156 124.832C150.703 125.254 151.422 125.465 152.312 125.465C153.133 125.465 153.789 125.301 154.281 124.973C154.781 124.637 155.031 124.191 155.031 123.637ZM162.379 127H160.211V114.32H162.379V127ZM160.035 110.957C160.035 110.605 160.141 110.309 160.352 110.066C160.57 109.824 160.891 109.703 161.312 109.703C161.734 109.703 162.055 109.824 162.273 110.066C162.492 110.309 162.602 110.605 162.602 110.957C162.602 111.309 162.492 111.602 162.273 111.836C162.055 112.07 161.734 112.188 161.312 112.188C160.891 112.188 160.57 112.07 160.352 111.836C160.141 111.602 160.035 111.309 160.035 110.957ZM173.242 123.637C173.242 123.051 173.02 122.598 172.574 122.277C172.137 121.949 171.367 121.668 170.266 121.434C169.172 121.199 168.301 120.918 167.652 120.59C167.012 120.262 166.535 119.871 166.223 119.418C165.918 118.965 165.766 118.426 165.766 117.801C165.766 116.762 166.203 115.883 167.078 115.164C167.961 114.445 169.086 114.086 170.453 114.086C171.891 114.086 173.055 114.457 173.945 115.199C174.844 115.941 175.293 116.891 175.293 118.047H173.113C173.113 117.453 172.859 116.941 172.352 116.512C171.852 116.082 171.219 115.867 170.453 115.867C169.664 115.867 169.047 116.039 168.602 116.383C168.156 116.727 167.934 117.176 167.934 117.73C167.934 118.254 168.141 118.648 168.555 118.914C168.969 119.18 169.715 119.434 170.793 119.676C171.879 119.918 172.758 120.207 173.43 120.543C174.102 120.879 174.598 121.285 174.918 121.762C175.246 122.23 175.41 122.805 175.41 123.484C175.41 124.617 174.957 125.527 174.051 126.215C173.145 126.895 171.969 127.234 170.523 127.234C169.508 127.234 168.609 127.055 167.828 126.695C167.047 126.336 166.434 125.836 165.988 125.195C165.551 124.547 165.332 123.848 165.332 123.098H167.5C167.539 123.824 167.828 124.402 168.367 124.832C168.914 125.254 169.633 125.465 170.523 125.465C171.344 125.465 172 125.301 172.492 124.973C172.992 124.637 173.242 124.191 173.242 123.637ZM191.09 127H188.91V112.551L184.539 114.156V112.188L190.75 109.855H191.09V127Z"/><path fill="#000" d="M435.98 127V109.938H441.559C443.41 109.938 444.801 110.32 445.73 111.086C446.668 111.852 447.137 112.984 447.137 114.484C447.137 115.281 446.91 115.988 446.457 116.605C446.004 117.215 445.387 117.688 444.605 118.023C445.527 118.281 446.254 118.773 446.785 119.5C447.324 120.219 447.594 121.078 447.594 122.078C447.594 123.609 447.098 124.812 446.105 125.688C445.113 126.562 443.711 127 441.898 127H435.98ZM438.23 119.02V125.16H441.945C442.992 125.16 443.816 124.891 444.418 124.352C445.027 123.805 445.332 123.055 445.332 122.102C445.332 120.047 444.215 119.02 441.98 119.02H438.23ZM438.23 117.215H441.629C442.613 117.215 443.398 116.969 443.984 116.477C444.578 115.984 444.875 115.316 444.875 114.473C444.875 113.535 444.602 112.855 444.055 112.434C443.508 112.004 442.676 111.789 441.559 111.789H438.23V117.215ZM458.422 127C458.297 126.75 458.195 126.305 458.117 125.664C457.109 126.711 455.906 127.234 454.508 127.234C453.258 127.234 452.23 126.883 451.426 126.18C450.629 125.469 450.23 124.57 450.23 123.484C450.23 122.164 450.73 121.141 451.73 120.414C452.738 119.68 454.152 119.312 455.973 119.312H458.082V118.316C458.082 117.559 457.855 116.957 457.402 116.512C456.949 116.059 456.281 115.832 455.398 115.832C454.625 115.832 453.977 116.027 453.453 116.418C452.93 116.809 452.668 117.281 452.668 117.836H450.488C450.488 117.203 450.711 116.594 451.156 116.008C451.609 115.414 452.219 114.945 452.984 114.602C453.758 114.258 454.605 114.086 455.527 114.086C456.988 114.086 458.133 114.453 458.961 115.188C459.789 115.914 460.219 116.918 460.25 118.199V124.035C460.25 125.199 460.398 126.125 460.695 126.812V127H458.422ZM454.824 125.348C455.504 125.348 456.148 125.172 456.758 124.82C457.367 124.469 457.809 124.012 458.082 123.449V120.848H456.383C453.727 120.848 452.398 121.625 452.398 123.18C452.398 123.859 452.625 124.391 453.078 124.773C453.531 125.156 454.113 125.348 454.824 125.348ZM471.031 123.637C471.031 123.051 470.809 122.598 470.363 122.277C469.926 121.949 469.156 121.668 468.055 121.434C466.961 121.199 466.09 120.918 465.441 120.59C464.801 120.262 464.324 119.871 464.012 119.418C463.707 118.965 463.555 118.426 463.555 117.801C463.555 116.762 463.992 115.883 464.867 115.164C465.75 114.445 466.875 114.086 468.242 114.086C469.68 114.086 470.844 114.457 471.734 115.199C472.633 115.941 473.082 116.891 473.082 118.047H470.902C470.902 117.453 470.648 116.941 470.141 116.512C469.641 116.082 469.008 115.867 468.242 115.867C467.453 115.867 466.836 116.039 466.391 116.383C465.945 116.727 465.723 117.176 465.723 117.73C465.723 118.254 465.93 118.648 466.344 118.914C466.758 119.18 467.504 119.434 468.582 119.676C469.668 119.918 470.547 120.207 471.219 120.543C471.891 120.879 472.387 121.285 472.707 121.762C473.035 122.23 473.199 122.805 473.199 123.484C473.199 124.617 472.746 125.527 471.84 126.215C470.934 126.895 469.758 127.234 468.312 127.234C467.297 127.234 466.398 127.055 465.617 126.695C464.836 126.336 464.223 125.836 463.777 125.195C463.34 124.547 463.121 123.848 463.121 123.098H465.289C465.328 123.824 465.617 124.402 466.156 124.832C466.703 125.254 467.422 125.465 468.312 125.465C469.133 125.465 469.789 125.301 470.281 124.973C470.781 124.637 471.031 124.191 471.031 123.637ZM478.379 127H476.211V114.32H478.379V127ZM476.035 110.957C476.035 110.605 476.141 110.309 476.352 110.066C476.57 109.824 476.891 109.703 477.312 109.703C477.734 109.703 478.055 109.824 478.273 110.066C478.492 110.309 478.602 110.605 478.602 110.957C478.602 111.309 478.492 111.602 478.273 111.836C478.055 112.07 477.734 112.188 477.312 112.188C476.891 112.188 476.57 112.07 476.352 111.836C476.141 111.602 476.035 111.309 476.035 110.957ZM489.242 123.637C489.242 123.051 489.02 122.598 488.574 122.277C488.137 121.949 487.367 121.668 486.266 121.434C485.172 121.199 484.301 120.918 483.652 120.59C483.012 120.262 482.535 119.871 482.223 119.418C481.918 118.965 481.766 118.426 481.766 117.801C481.766 116.762 482.203 115.883 483.078 115.164C483.961 114.445 485.086 114.086 486.453 114.086C487.891 114.086 489.055 114.457 489.945 115.199C490.844 115.941 491.293 116.891 491.293 118.047H489.113C489.113 117.453 488.859 116.941 488.352 116.512C487.852 116.082 487.219 115.867 486.453 115.867C485.664 115.867 485.047 116.039 484.602 116.383C484.156 116.727 483.934 117.176 483.934 117.73C483.934 118.254 484.141 118.648 484.555 118.914C484.969 119.18 485.715 119.434 486.793 119.676C487.879 119.918 488.758 120.207 489.43 120.543C490.102 120.879 490.598 121.285 490.918 121.762C491.246 122.23 491.41 122.805 491.41 123.484C491.41 124.617 490.957 125.527 490.051 126.215C489.145 126.895 487.969 127.234 486.523 127.234C485.508 127.234 484.609 127.055 483.828 126.695C483.047 126.336 482.434 125.836 481.988 125.195C481.551 124.547 481.332 123.848 481.332 123.098H483.5C483.539 123.824 483.828 124.402 484.367 124.832C484.914 125.254 485.633 125.465 486.523 125.465C487.344 125.465 488 125.301 488.492 124.973C488.992 124.637 489.242 124.191 489.242 123.637ZM511.145 127H499.965V125.441L505.871 118.879C506.746 117.887 507.348 117.082 507.676 116.465C508.012 115.84 508.18 115.195 508.18 114.531C508.18 113.641 507.91 112.91 507.371 112.34C506.832 111.77 506.113 111.484 505.215 111.484C504.137 111.484 503.297 111.793 502.695 112.41C502.102 113.02 501.805 113.871 501.805 114.965H499.637C499.637 113.395 500.141 112.125 501.148 111.156C502.164 110.188 503.52 109.703 505.215 109.703C506.801 109.703 508.055 110.121 508.977 110.957C509.898 111.785 510.359 112.891 510.359 114.273C510.359 115.953 509.289 117.953 507.148 120.273L502.578 125.23H511.145V127Z"/><path fill="#000" d="M761.98 127V109.938H767.559C769.41 109.938 770.801 110.32 771.73 111.086C772.668 111.852 773.137 112.984 773.137 114.484C773.137 115.281 772.91 115.988 772.457 116.605C772.004 117.215 771.387 117.688 770.605 118.023C771.527 118.281 772.254 118.773 772.785 119.5C773.324 120.219 773.594 121.078 773.594 122.078C773.594 123.609 773.098 124.812 772.105 125.688C771.113 126.562 769.711 127 767.898 127H761.98ZM764.23 119.02V125.16H767.945C768.992 125.16 769.816 124.891 770.418 124.352C771.027 123.805 771.332 123.055 771.332 122.102C771.332 120.047 770.215 119.02 767.98 119.02H764.23ZM764.23 117.215H767.629C768.613 117.215 769.398 116.969 769.984 116.477C770.578 115.984 770.875 115.316 770.875 114.473C770.875 113.535 770.602 112.855 770.055 112.434C769.508 112.004 768.676 111.789 767.559 111.789H764.23V117.215ZM784.422 127C784.297 126.75 784.195 126.305 784.117 125.664C783.109 126.711 781.906 127.234 780.508 127.234C779.258 127.234 778.23 126.883 777.426 126.18C776.629 125.469 776.23 124.57 776.23 123.484C776.23 122.164 776.73 121.141 777.73 120.414C778.738 119.68 780.152 119.312 781.973 119.312H784.082V118.316C784.082 117.559 783.855 116.957 783.402 116.512C782.949 116.059 782.281 115.832 781.398 115.832C780.625 115.832 779.977 116.027 779.453 116.418C778.93 116.809 778.668 117.281 778.668 117.836H776.488C776.488 117.203 776.711 116.594 777.156 116.008C777.609 115.414 778.219 114.945 778.984 114.602C779.758 114.258 780.605 114.086 781.527 114.086C782.988 114.086 784.133 114.453 784.961 115.188C785.789 115.914 786.219 116.918 786.25 118.199V124.035C786.25 125.199 786.398 126.125 786.695 126.812V127H784.422ZM780.824 125.348C781.504 125.348 782.148 125.172 782.758 124.82C783.367 124.469 783.809 124.012 784.082 123.449V120.848H782.383C779.727 120.848 778.398 121.625 778.398 123.18C778.398 123.859 778.625 124.391 779.078 124.773C779.531 125.156 780.113 125.348 780.824 125.348ZM797.031 123.637C797.031 123.051 796.809 122.598 796.363 122.277C795.926 121.949 795.156 121.668 794.055 121.434C792.961 121.199 792.09 120.918 791.441 120.59C790.801 120.262 790.324 119.871 790.012 119.418C789.707 118.965 789.555 118.426 789.555 117.801C789.555 116.762 789.992 115.883 790.867 115.164C791.75 114.445 792.875 114.086 794.242 114.086C795.68 114.086 796.844 114.457 797.734 115.199C798.633 115.941 799.082 116.891 799.082 118.047H796.902C796.902 117.453 796.648 116.941 796.141 116.512C795.641 116.082 795.008 115.867 794.242 115.867C793.453 115.867 792.836 116.039 792.391 116.383C791.945 116.727 791.723 117.176 791.723 117.73C791.723 118.254 791.93 118.648 792.344 118.914C792.758 119.18 793.504 119.434 794.582 119.676C795.668 119.918 796.547 120.207 797.219 120.543C797.891 120.879 798.387 121.285 798.707 121.762C799.035 122.23 799.199 122.805 799.199 123.484C799.199 124.617 798.746 125.527 797.84 126.215C796.934 126.895 795.758 127.234 794.312 127.234C793.297 127.234 792.398 127.055 791.617 126.695C790.836 126.336 790.223 125.836 789.777 125.195C789.34 124.547 789.121 123.848 789.121 123.098H791.289C791.328 123.824 791.617 124.402 792.156 124.832C792.703 125.254 793.422 125.465 794.312 125.465C795.133 125.465 795.789 125.301 796.281 124.973C796.781 124.637 797.031 124.191 797.031 123.637ZM804.379 127H802.211V114.32H804.379V127ZM802.035 110.957C802.035 110.605 802.141 110.309 802.352 110.066C802.57 109.824 802.891 109.703 803.312 109.703C803.734 109.703 804.055 109.824 804.273 110.066C804.492 110.309 804.602 110.605 804.602 110.957C804.602 111.309 804.492 111.602 804.273 111.836C804.055 112.07 803.734 112.188 803.312 112.188C802.891 112.188 802.57 112.07 802.352 111.836C802.141 111.602 802.035 111.309 802.035 110.957ZM815.242 123.637C815.242 123.051 815.02 122.598 814.574 122.277C814.137 121.949 813.367 121.668 812.266 121.434C811.172 121.199 810.301 120.918 809.652 120.59C809.012 120.262 808.535 119.871 808.223 119.418C807.918 118.965 807.766 118.426 807.766 117.801C807.766 116.762 808.203 115.883 809.078 115.164C809.961 114.445 811.086 114.086 812.453 114.086C813.891 114.086 815.055 114.457 815.945 115.199C816.844 115.941 817.293 116.891 817.293 118.047H815.113C815.113 117.453 814.859 116.941 814.352 116.512C813.852 116.082 813.219 115.867 812.453 115.867C811.664 115.867 811.047 116.039 810.602 116.383C810.156 116.727 809.934 117.176 809.934 117.73C809.934 118.254 810.141 118.648 810.555 118.914C810.969 119.18 811.715 119.434 812.793 119.676C813.879 119.918 814.758 120.207 815.43 120.543C816.102 120.879 816.598 121.285 816.918 121.762C817.246 122.23 817.41 122.805 817.41 123.484C817.41 124.617 816.957 125.527 816.051 126.215C815.145 126.895 813.969 127.234 812.523 127.234C811.508 127.234 810.609 127.055 809.828 126.695C809.047 126.336 808.434 125.836 807.988 125.195C807.551 124.547 807.332 123.848 807.332 123.098H809.5C809.539 123.824 809.828 124.402 810.367 124.832C810.914 125.254 811.633 125.465 812.523 125.465C813.344 125.465 814 125.301 814.492 124.973C814.992 124.637 815.242 124.191 815.242 123.637ZM829.117 117.414H830.746C831.77 117.398 832.574 117.129 833.16 116.605C833.746 116.082 834.039 115.375 834.039 114.484C834.039 112.484 833.043 111.484 831.051 111.484C830.113 111.484 829.363 111.754 828.801 112.293C828.246 112.824 827.969 113.531 827.969 114.414H825.801C825.801 113.062 826.293 111.941 827.277 111.051C828.27 110.152 829.527 109.703 831.051 109.703C832.66 109.703 833.922 110.129 834.836 110.98C835.75 111.832 836.207 113.016 836.207 114.531C836.207 115.273 835.965 115.992 835.48 116.688C835.004 117.383 834.352 117.902 833.523 118.246C834.461 118.543 835.184 119.035 835.691 119.723C836.207 120.41 836.465 121.25 836.465 122.242C836.465 123.773 835.965 124.988 834.965 125.887C833.965 126.785 832.664 127.234 831.062 127.234C829.461 127.234 828.156 126.801 827.148 125.934C826.148 125.066 825.648 123.922 825.648 122.5H827.828C827.828 123.398 828.121 124.117 828.707 124.656C829.293 125.195 830.078 125.465 831.062 125.465C832.109 125.465 832.91 125.191 833.465 124.645C834.02 124.098 834.297 123.312 834.297 122.289C834.297 121.297 833.992 120.535 833.383 120.004C832.773 119.473 831.895 119.199 830.746 119.184H829.117V117.414Z"/><path fill="#000" d="M1087.98 127V109.938H1093.56C1095.41 109.938 1096.8 110.32 1097.73 111.086C1098.67 111.852 1099.14 112.984 1099.14 114.484C1099.14 115.281 1098.91 115.988 1098.46 116.605C1098 117.215 1097.39 117.688 1096.61 118.023C1097.53 118.281 1098.25 118.773 1098.79 119.5C1099.32 120.219 1099.59 121.078 1099.59 122.078C1099.59 123.609 1099.1 124.812 1098.11 125.688C1097.11 126.562 1095.71 127 1093.9 127H1087.98ZM1090.23 119.02V125.16H1093.95C1094.99 125.16 1095.82 124.891 1096.42 124.352C1097.03 123.805 1097.33 123.055 1097.33 122.102C1097.33 120.047 1096.21 119.02 1093.98 119.02H1090.23ZM1090.23 117.215H1093.63C1094.61 117.215 1095.4 116.969 1095.98 116.477C1096.58 115.984 1096.88 115.316 1096.88 114.473C1096.88 113.535 1096.6 112.855 1096.05 112.434C1095.51 112.004 1094.68 111.789 1093.56 111.789H1090.23V117.215ZM1110.42 127C1110.3 126.75 1110.2 126.305 1110.12 125.664C1109.11 126.711 1107.91 127.234 1106.51 127.234C1105.26 127.234 1104.23 126.883 1103.43 126.18C1102.63 125.469 1102.23 124.57 1102.23 123.484C1102.23 122.164 1102.73 121.141 1103.73 120.414C1104.74 119.68 1106.15 119.312 1107.97 119.312H1110.08V118.316C1110.08 117.559 1109.86 116.957 1109.4 116.512C1108.95 116.059 1108.28 115.832 1107.4 115.832C1106.62 115.832 1105.98 116.027 1105.45 116.418C1104.93 116.809 1104.67 117.281 1104.67 117.836H1102.49C1102.49 117.203 1102.71 116.594 1103.16 116.008C1103.61 115.414 1104.22 114.945 1104.98 114.602C1105.76 114.258 1106.61 114.086 1107.53 114.086C1108.99 114.086 1110.13 114.453 1110.96 115.188C1111.79 115.914 1112.22 116.918 1112.25 118.199V124.035C1112.25 125.199 1112.4 126.125 1112.7 126.812V127H1110.42ZM1106.82 125.348C1107.5 125.348 1108.15 125.172 1108.76 124.82C1109.37 124.469 1109.81 124.012 1110.08 123.449V120.848H1108.38C1105.73 120.848 1104.4 121.625 1104.4 123.18C1104.4 123.859 1104.62 124.391 1105.08 124.773C1105.53 125.156 1106.11 125.348 1106.82 125.348ZM1123.03 123.637C1123.03 123.051 1122.81 122.598 1122.36 122.277C1121.93 121.949 1121.16 121.668 1120.05 121.434C1118.96 121.199 1118.09 120.918 1117.44 120.59C1116.8 120.262 1116.32 119.871 1116.01 119.418C1115.71 118.965 1115.55 118.426 1115.55 117.801C1115.55 116.762 1115.99 115.883 1116.87 115.164C1117.75 114.445 1118.88 114.086 1120.24 114.086C1121.68 114.086 1122.84 114.457 1123.73 115.199C1124.63 115.941 1125.08 116.891 1125.08 118.047H1122.9C1122.9 117.453 1122.65 116.941 1122.14 116.512C1121.64 116.082 1121.01 115.867 1120.24 115.867C1119.45 115.867 1118.84 116.039 1118.39 116.383C1117.95 116.727 1117.72 117.176 1117.72 117.73C1117.72 118.254 1117.93 118.648 1118.34 118.914C1118.76 119.18 1119.5 119.434 1120.58 119.676C1121.67 119.918 1122.55 120.207 1123.22 120.543C1123.89 120.879 1124.39 121.285 1124.71 121.762C1125.04 122.23 1125.2 122.805 1125.2 123.484C1125.2 124.617 1124.75 125.527 1123.84 126.215C1122.93 126.895 1121.76 127.234 1120.31 127.234C1119.3 127.234 1118.4 127.055 1117.62 126.695C1116.84 126.336 1116.22 125.836 1115.78 125.195C1115.34 124.547 1115.12 123.848 1115.12 123.098H1117.29C1117.33 123.824 1117.62 124.402 1118.16 124.832C1118.7 125.254 1119.42 125.465 1120.31 125.465C1121.13 125.465 1121.79 125.301 1122.28 124.973C1122.78 124.637 1123.03 124.191 1123.03 123.637ZM1130.38 127H1128.21V114.32H1130.38V127ZM1128.04 110.957C1128.04 110.605 1128.14 110.309 1128.35 110.066C1128.57 109.824 1128.89 109.703 1129.31 109.703C1129.73 109.703 1130.05 109.824 1130.27 110.066C1130.49 110.309 1130.6 110.605 1130.6 110.957C1130.6 111.309 1130.49 111.602 1130.27 111.836C1130.05 112.07 1129.73 112.188 1129.31 112.188C1128.89 112.188 1128.57 112.07 1128.35 111.836C1128.14 111.602 1128.04 111.309 1128.04 110.957ZM1141.24 123.637C1141.24 123.051 1141.02 122.598 1140.57 122.277C1140.14 121.949 1139.37 121.668 1138.27 121.434C1137.17 121.199 1136.3 120.918 1135.65 120.59C1135.01 120.262 1134.54 119.871 1134.22 119.418C1133.92 118.965 1133.77 118.426 1133.77 117.801C1133.77 116.762 1134.2 115.883 1135.08 115.164C1135.96 114.445 1137.09 114.086 1138.45 114.086C1139.89 114.086 1141.05 114.457 1141.95 115.199C1142.84 115.941 1143.29 116.891 1143.29 118.047H1141.11C1141.11 117.453 1140.86 116.941 1140.35 116.512C1139.85 116.082 1139.22 115.867 1138.45 115.867C1137.66 115.867 1137.05 116.039 1136.6 116.383C1136.16 116.727 1135.93 117.176 1135.93 117.73C1135.93 118.254 1136.14 118.648 1136.55 118.914C1136.97 119.18 1137.71 119.434 1138.79 119.676C1139.88 119.918 1140.76 120.207 1141.43 120.543C1142.1 120.879 1142.6 121.285 1142.92 121.762C1143.25 122.23 1143.41 122.805 1143.41 123.484C1143.41 124.617 1142.96 125.527 1142.05 126.215C1141.14 126.895 1139.97 127.234 1138.52 127.234C1137.51 127.234 1136.61 127.055 1135.83 126.695C1135.05 126.336 1134.43 125.836 1133.99 125.195C1133.55 124.547 1133.33 123.848 1133.33 123.098H1135.5C1135.54 123.824 1135.83 124.402 1136.37 124.832C1136.91 125.254 1137.63 125.465 1138.52 125.465C1139.34 125.465 1140 125.301 1140.49 124.973C1140.99 124.637 1141.24 124.191 1141.24 123.637ZM1161.12 121.27H1163.48V123.039H1161.12V127H1158.94V123.039H1151.17V121.762L1158.81 109.938H1161.12V121.27ZM1153.63 121.27H1158.94V112.902L1158.68 113.371L1153.63 121.27Z"/><rect id="r1" width="258" height="56" x="118" y="176" fill="#000" rx="5"/><path fill="#fff" d="M142.77 201.266C142.441 201.211 142.086 201.184 141.703 201.184C140.281 201.184 139.316 201.789 138.809 203V212H136.641V199.32H138.75L138.785 200.785C139.496 199.652 140.504 199.086 141.809 199.086C142.23 199.086 142.551 199.141 142.77 199.25V201.266ZM151.676 212H149.496V197.551L145.125 199.156V197.188L151.336 194.855H151.676V212Z"/><path fill="#000" d="M142.77 201.266C142.441 201.211 142.086 201.184 141.703 201.184C140.281 201.184 139.316 201.789 138.809 203V212H136.641V199.32H138.75L138.785 200.785C139.496 199.652 140.504 199.086 141.809 199.086C142.23 199.086 142.551 199.141 142.77 199.25V201.266ZM151.676 212H149.496V197.551L145.125 199.156V197.188L151.336 194.855H151.676V212Z"/><rect id="r2" width="258" height="56" x="117" y="252" fill="#000" rx="5"/><rect id="r3" width="258" height="56" x="118" y="328" fill="#000" rx="5"/><rect id="r4" width="258" height="56" x="117" y="404" fill="#000" rx="5"/><rect id="r5" width="258" height="56" x="118" y="480" fill="#000" rx="5"/><rect id="r6" width="258" height="56" x="117" y="556" fill="#000" rx="5"/><rect id="r7" width="258" height="56" x="118" y="632" fill="#000" rx="5"/><rect id="r8" width="258" height="56" x="118" y="708" fill="#000" rx="5"/><rect id="r9" width="258" height="56" x="118" y="784" fill="#000" rx="5"/><rect id="r10" width="258" height="56" x="117" y="860" fill="#000" rx="5"/><rect id="r11" width="258" height="56" x="434" y="176" fill="#000" rx="5"/><rect id="r12" width="258" height="56" x="433" y="252" fill="#000" rx="5"/><rect id="r13" width="258" height="56" x="434" y="328" fill="#000" rx="5"/><rect id="r14" width="258" height="56" x="433" y="404" fill="#000" rx="5"/><rect id="r15" width="258" height="56" x="434" y="480" fill="#000" rx="5"/><rect id="r16" width="258" height="56" x="433" y="556" fill="#000" rx="5"/><rect id="r17" width="258" height="56" x="434" y="632" fill="#000" rx="5"/><rect id="r18" width="258" height="56" x="434" y="708" fill="#000" rx="5"/><rect id="r19" width="258" height="56" x="434" y="784" fill="#000" rx="5"/><rect id="r20" width="258" height="56" x="433" y="860" fill="#000" rx="5"/><rect id="r21" width="258" height="56" x="749" y="176" fill="#000" rx="5"/><rect id="r22" width="258" height="56" x="748" y="252" fill="#000" rx="5"/><rect id="r23" width="258" height="56" x="749" y="328" fill="#000" rx="5"/><rect id="r24" width="258" height="56" x="748" y="404" fill="#000" rx="5"/><rect id="r25" width="258" height="56" x="749" y="480" fill="#000" rx="5"/><rect id="r26" width="258" height="56" x="748" y="556" fill="#000" rx="5"/><rect id="r27" width="258" height="56" x="749" y="632" fill="#000" rx="5"/><rect id="r28" width="258" height="56" x="749" y="708" fill="#000" rx="5"/><rect id="r29" width="258" height="56" x="749" y="784" fill="#000" rx="5"/><rect id="r30" width="258" height="56" x="748" y="860" fill="#000" rx="5"/><rect id="r31" width="258" height="56" x="1065" y="176" fill="#000" rx="5"/><rect id="r32" width="258" height="56" x="1064" y="252" fill="#000" rx="5"/><rect id="r33" width="258" height="56" x="1065" y="328" fill="#000" rx="5"/><rect id="r34" width="258" height="56" x="1064" y="404" fill="#000" rx="5"/><rect id="r34" width="258" height="56" x="1065" y="480" fill="#000" rx="5"/><rect id="r35" width="258" height="56" x="1064" y="556" fill="#000" rx="5"/><rect id="r36" width="258" height="56" x="1065" y="632" fill="#000" rx="5"/><rect id="r37" width="258" height="56" x="1065" y="708" fill="#000" rx="5"/><rect id="r38" width="258" height="56" x="1065" y="784" fill="#000" rx="5"/><rect id="r39" width="258" height="56" x="1064" y="860" fill="#000" rx="5"/><path fill="#000" d="M142.77 277.266C142.441 277.211 142.086 277.184 141.703 277.184C140.281 277.184 139.316 277.789 138.809 279V288H136.641V275.32H138.75L138.785 276.785C139.496 275.652 140.504 275.086 141.809 275.086C142.23 275.086 142.551 275.141 142.77 275.25V277.266ZM155.73 288H144.551V286.441L150.457 279.879C151.332 278.887 151.934 278.082 152.262 277.465C152.598 276.84 152.766 276.195 152.766 275.531C152.766 274.641 152.496 273.91 151.957 273.34C151.418 272.77 150.699 272.484 149.801 272.484C148.723 272.484 147.883 272.793 147.281 273.41C146.688 274.02 146.391 274.871 146.391 275.965H144.223C144.223 274.395 144.727 273.125 145.734 272.156C146.75 271.188 148.105 270.703 149.801 270.703C151.387 270.703 152.641 271.121 153.562 271.957C154.484 272.785 154.945 273.891 154.945 275.273C154.945 276.953 153.875 278.953 151.734 281.273L147.164 286.23H155.73V288Z"/><path fill="#000" d="M142.77 353.266C142.441 353.211 142.086 353.184 141.703 353.184C140.281 353.184 139.316 353.789 138.809 355V364H136.641V351.32H138.75L138.785 352.785C139.496 351.652 140.504 351.086 141.809 351.086C142.23 351.086 142.551 351.141 142.77 351.25V353.266ZM147.703 354.414H149.332C150.355 354.398 151.16 354.129 151.746 353.605C152.332 353.082 152.625 352.375 152.625 351.484C152.625 349.484 151.629 348.484 149.637 348.484C148.699 348.484 147.949 348.754 147.387 349.293C146.832 349.824 146.555 350.531 146.555 351.414H144.387C144.387 350.062 144.879 348.941 145.863 348.051C146.855 347.152 148.113 346.703 149.637 346.703C151.246 346.703 152.508 347.129 153.422 347.98C154.336 348.832 154.793 350.016 154.793 351.531C154.793 352.273 154.551 352.992 154.066 353.688C153.59 354.383 152.938 354.902 152.109 355.246C153.047 355.543 153.77 356.035 154.277 356.723C154.793 357.41 155.051 358.25 155.051 359.242C155.051 360.773 154.551 361.988 153.551 362.887C152.551 363.785 151.25 364.234 149.648 364.234C148.047 364.234 146.742 363.801 145.734 362.934C144.734 362.066 144.234 360.922 144.234 359.5H146.414C146.414 360.398 146.707 361.117 147.293 361.656C147.879 362.195 148.664 362.465 149.648 362.465C150.695 362.465 151.496 362.191 152.051 361.645C152.605 361.098 152.883 360.312 152.883 359.289C152.883 358.297 152.578 357.535 151.969 357.004C151.359 356.473 150.48 356.199 149.332 356.184H147.703V354.414Z"/><path fill="#000" d="M142.77 429.266C142.441 429.211 142.086 429.184 141.703 429.184C140.281 429.184 139.316 429.789 138.809 431V440H136.641V427.32H138.75L138.785 428.785C139.496 427.652 140.504 427.086 141.809 427.086C142.23 427.086 142.551 427.141 142.77 427.25V429.266ZM153.703 434.27H156.07V436.039H153.703V440H151.523V436.039H143.754V434.762L151.395 422.938H153.703V434.27ZM146.215 434.27H151.523V425.902L151.266 426.371L146.215 434.27Z"/><path fill="#000" d="M142.77 505.266C142.441 505.211 142.086 505.184 141.703 505.184C140.281 505.184 139.316 505.789 138.809 507V516H136.641V503.32H138.75L138.785 504.785C139.496 503.652 140.504 503.086 141.809 503.086C142.23 503.086 142.551 503.141 142.77 503.25V505.266ZM145.547 507.445L146.414 498.938H155.156V500.941H148.254L147.738 505.594C148.574 505.102 149.523 504.855 150.586 504.855C152.141 504.855 153.375 505.371 154.289 506.402C155.203 507.426 155.66 508.812 155.66 510.562C155.66 512.32 155.184 513.707 154.23 514.723C153.285 515.73 151.961 516.234 150.258 516.234C148.75 516.234 147.52 515.816 146.566 514.98C145.613 514.145 145.07 512.988 144.938 511.512H146.988C147.121 512.488 147.469 513.227 148.031 513.727C148.594 514.219 149.336 514.465 150.258 514.465C151.266 514.465 152.055 514.121 152.625 513.434C153.203 512.746 153.492 511.797 153.492 510.586C153.492 509.445 153.18 508.531 152.555 507.844C151.938 507.148 151.113 506.801 150.082 506.801C149.137 506.801 148.395 507.008 147.855 507.422L147.281 507.891L145.547 507.445Z"/><path fill="#000" d="M142.77 581.266C142.441 581.211 142.086 581.184 141.703 581.184C140.281 581.184 139.316 581.789 138.809 583V592H136.641V579.32H138.75L138.785 580.785C139.496 579.652 140.504 579.086 141.809 579.086C142.23 579.086 142.551 579.141 142.77 579.25V581.266ZM153.059 574.926V576.766H152.66C150.973 576.797 149.629 577.297 148.629 578.266C147.629 579.234 147.051 580.598 146.895 582.355C147.793 581.324 149.02 580.809 150.574 580.809C152.059 580.809 153.242 581.332 154.125 582.379C155.016 583.426 155.461 584.777 155.461 586.434C155.461 588.191 154.98 589.598 154.02 590.652C153.066 591.707 151.785 592.234 150.176 592.234C148.543 592.234 147.219 591.609 146.203 590.359C145.188 589.102 144.68 587.484 144.68 585.508V584.676C144.68 581.535 145.348 579.137 146.684 577.48C148.027 575.816 150.023 574.965 152.672 574.926H153.059ZM150.211 582.613C149.469 582.613 148.785 582.836 148.16 583.281C147.535 583.727 147.102 584.285 146.859 584.957V585.754C146.859 587.16 147.176 588.293 147.809 589.152C148.441 590.012 149.23 590.441 150.176 590.441C151.152 590.441 151.918 590.082 152.473 589.363C153.035 588.645 153.316 587.703 153.316 586.539C153.316 585.367 153.031 584.422 152.461 583.703C151.898 582.977 151.148 582.613 150.211 582.613Z"/><path fill="#000" d="M142.77 657.266C142.441 657.211 142.086 657.184 141.703 657.184C140.281 657.184 139.316 657.789 138.809 659V668H136.641V655.32H138.75L138.785 656.785C139.496 655.652 140.504 655.086 141.809 655.086C142.23 655.086 142.551 655.141 142.77 655.25V657.266ZM155.566 652.156L148.5 668H146.227L153.27 652.719H144.035V650.938H155.566V652.156Z"/><path fill="#000" d="M142.77 733.266C142.441 733.211 142.086 733.184 141.703 733.184C140.281 733.184 139.316 733.789 138.809 735V744H136.641V731.32H138.75L138.785 732.785C139.496 731.652 140.504 731.086 141.809 731.086C142.23 731.086 142.551 731.141 142.77 731.25V733.266ZM154.898 731.391C154.898 732.242 154.672 733 154.219 733.664C153.773 734.328 153.168 734.848 152.402 735.223C153.293 735.605 153.996 736.164 154.512 736.898C155.035 737.633 155.297 738.465 155.297 739.395C155.297 740.871 154.797 742.047 153.797 742.922C152.805 743.797 151.496 744.234 149.871 744.234C148.23 744.234 146.914 743.797 145.922 742.922C144.938 742.039 144.445 740.863 144.445 739.395C144.445 738.473 144.695 737.641 145.195 736.898C145.703 736.156 146.402 735.594 147.293 735.211C146.535 734.836 145.938 734.316 145.5 733.652C145.062 732.988 144.844 732.234 144.844 731.391C144.844 729.953 145.305 728.812 146.227 727.969C147.148 727.125 148.363 726.703 149.871 726.703C151.371 726.703 152.582 727.125 153.504 727.969C154.434 728.812 154.898 729.953 154.898 731.391ZM153.129 739.348C153.129 738.395 152.824 737.617 152.215 737.016C151.613 736.414 150.824 736.113 149.848 736.113C148.871 736.113 148.086 736.41 147.492 737.004C146.906 737.598 146.613 738.379 146.613 739.348C146.613 740.316 146.898 741.078 147.469 741.633C148.047 742.188 148.848 742.465 149.871 742.465C150.887 742.465 151.684 742.188 152.262 741.633C152.84 741.07 153.129 740.309 153.129 739.348ZM149.871 728.484C149.02 728.484 148.328 728.75 147.797 729.281C147.273 729.805 147.012 730.52 147.012 731.426C147.012 732.293 147.27 732.996 147.785 733.535C148.309 734.066 149.004 734.332 149.871 734.332C150.738 734.332 151.43 734.066 151.945 733.535C152.469 732.996 152.73 732.293 152.73 731.426C152.73 730.559 152.461 729.852 151.922 729.305C151.383 728.758 150.699 728.484 149.871 728.484Z"/><path fill="#000" d="M142.77 809.266C142.441 809.211 142.086 809.184 141.703 809.184C140.281 809.184 139.316 809.789 138.809 811V820H136.641V807.32H138.75L138.785 808.785C139.496 807.652 140.504 807.086 141.809 807.086C142.23 807.086 142.551 807.141 142.77 807.25V809.266ZM152.859 812.5C152.406 813.039 151.863 813.473 151.23 813.801C150.605 814.129 149.918 814.293 149.168 814.293C148.184 814.293 147.324 814.051 146.59 813.566C145.863 813.082 145.301 812.402 144.902 811.527C144.504 810.645 144.305 809.672 144.305 808.609C144.305 807.469 144.52 806.441 144.949 805.527C145.387 804.613 146.004 803.914 146.801 803.43C147.598 802.945 148.527 802.703 149.59 802.703C151.277 802.703 152.605 803.336 153.574 804.602C154.551 805.859 155.039 807.578 155.039 809.758V810.391C155.039 813.711 154.383 816.137 153.07 817.668C151.758 819.191 149.777 819.973 147.129 820.012H146.707V818.184H147.164C148.953 818.152 150.328 817.688 151.289 816.789C152.25 815.883 152.773 814.453 152.859 812.5ZM149.52 812.5C150.246 812.5 150.914 812.277 151.523 811.832C152.141 811.387 152.59 810.836 152.871 810.18V809.312C152.871 807.891 152.562 806.734 151.945 805.844C151.328 804.953 150.547 804.508 149.602 804.508C148.648 804.508 147.883 804.875 147.305 805.609C146.727 806.336 146.438 807.297 146.438 808.492C146.438 809.656 146.715 810.617 147.27 811.375C147.832 812.125 148.582 812.5 149.52 812.5Z"/><path fill="#000" d="M142.77 885.266C142.441 885.211 142.086 885.184 141.703 885.184C140.281 885.184 139.316 885.789 138.809 887V896H136.641V883.32H138.75L138.785 884.785C139.496 883.652 140.504 883.086 141.809 883.086C142.23 883.086 142.551 883.141 142.77 883.25V885.266ZM151.676 896H149.496V881.551L145.125 883.156V881.188L151.336 878.855H151.676V896ZM168.727 888.723C168.727 891.262 168.293 893.148 167.426 894.383C166.559 895.617 165.203 896.234 163.359 896.234C161.539 896.234 160.191 895.633 159.316 894.43C158.441 893.219 157.988 891.414 157.957 889.016V886.121C157.957 883.613 158.391 881.75 159.258 880.531C160.125 879.312 161.484 878.703 163.336 878.703C165.172 878.703 166.523 879.293 167.391 880.473C168.258 881.645 168.703 883.457 168.727 885.91V888.723ZM166.559 885.758C166.559 883.922 166.301 882.586 165.785 881.75C165.27 880.906 164.453 880.484 163.336 880.484C162.227 880.484 161.418 880.902 160.91 881.738C160.402 882.574 160.141 883.859 160.125 885.594V889.062C160.125 890.906 160.391 892.27 160.922 893.152C161.461 894.027 162.273 894.465 163.359 894.465C164.43 894.465 165.223 894.051 165.738 893.223C166.262 892.395 166.535 891.09 166.559 889.309V885.758Z"/><path fill="#000" d="M462.77 201.266C462.441 201.211 462.086 201.184 461.703 201.184C460.281 201.184 459.316 201.789 458.809 203V212H456.641V199.32H458.75L458.785 200.785C459.496 199.652 460.504 199.086 461.809 199.086C462.23 199.086 462.551 199.141 462.77 199.25V201.266ZM471.676 212H469.496V197.551L465.125 199.156V197.188L471.336 194.855H471.676V212ZM485.152 212H482.973V197.551L478.602 199.156V197.188L484.812 194.855H485.152V212Z"/><path fill="#000" d="M462.77 277.266C462.441 277.211 462.086 277.184 461.703 277.184C460.281 277.184 459.316 277.789 458.809 279V288H456.641V275.32H458.75L458.785 276.785C459.496 275.652 460.504 275.086 461.809 275.086C462.23 275.086 462.551 275.141 462.77 275.25V277.266ZM471.676 288H469.496V273.551L465.125 275.156V273.188L471.336 270.855H471.676V288ZM489.207 288H478.027V286.441L483.934 279.879C484.809 278.887 485.41 278.082 485.738 277.465C486.074 276.84 486.242 276.195 486.242 275.531C486.242 274.641 485.973 273.91 485.434 273.34C484.895 272.77 484.176 272.484 483.277 272.484C482.199 272.484 481.359 272.793 480.758 273.41C480.164 274.02 479.867 274.871 479.867 275.965H477.699C477.699 274.395 478.203 273.125 479.211 272.156C480.227 271.188 481.582 270.703 483.277 270.703C484.863 270.703 486.117 271.121 487.039 271.957C487.961 272.785 488.422 273.891 488.422 275.273C488.422 276.953 487.352 278.953 485.211 281.273L480.641 286.23H489.207V288Z"/><path fill="#000" d="M462.77 353.266C462.441 353.211 462.086 353.184 461.703 353.184C460.281 353.184 459.316 353.789 458.809 355V364H456.641V351.32H458.75L458.785 352.785C459.496 351.652 460.504 351.086 461.809 351.086C462.23 351.086 462.551 351.141 462.77 351.25V353.266ZM471.676 364H469.496V349.551L465.125 351.156V349.188L471.336 346.855H471.676V364ZM481.18 354.414H482.809C483.832 354.398 484.637 354.129 485.223 353.605C485.809 353.082 486.102 352.375 486.102 351.484C486.102 349.484 485.105 348.484 483.113 348.484C482.176 348.484 481.426 348.754 480.863 349.293C480.309 349.824 480.031 350.531 480.031 351.414H477.863C477.863 350.062 478.355 348.941 479.34 348.051C480.332 347.152 481.59 346.703 483.113 346.703C484.723 346.703 485.984 347.129 486.898 347.98C487.812 348.832 488.27 350.016 488.27 351.531C488.27 352.273 488.027 352.992 487.543 353.688C487.066 354.383 486.414 354.902 485.586 355.246C486.523 355.543 487.246 356.035 487.754 356.723C488.27 357.41 488.527 358.25 488.527 359.242C488.527 360.773 488.027 361.988 487.027 362.887C486.027 363.785 484.727 364.234 483.125 364.234C481.523 364.234 480.219 363.801 479.211 362.934C478.211 362.066 477.711 360.922 477.711 359.5H479.891C479.891 360.398 480.184 361.117 480.77 361.656C481.355 362.195 482.141 362.465 483.125 362.465C484.172 362.465 484.973 362.191 485.527 361.645C486.082 361.098 486.359 360.312 486.359 359.289C486.359 358.297 486.055 357.535 485.445 357.004C484.836 356.473 483.957 356.199 482.809 356.184H481.18V354.414Z"/><path fill="#000" d="M462.77 429.266C462.441 429.211 462.086 429.184 461.703 429.184C460.281 429.184 459.316 429.789 458.809 431V440H456.641V427.32H458.75L458.785 428.785C459.496 427.652 460.504 427.086 461.809 427.086C462.23 427.086 462.551 427.141 462.77 427.25V429.266ZM471.676 440H469.496V425.551L465.125 427.156V425.188L471.336 422.855H471.676V440ZM487.18 434.27H489.547V436.039H487.18V440H485V436.039H477.23V434.762L484.871 422.938H487.18V434.27ZM479.691 434.27H485V425.902L484.742 426.371L479.691 434.27Z"/><path fill="#000" d="M462.77 505.266C462.441 505.211 462.086 505.184 461.703 505.184C460.281 505.184 459.316 505.789 458.809 507V516H456.641V503.32H458.75L458.785 504.785C459.496 503.652 460.504 503.086 461.809 503.086C462.23 503.086 462.551 503.141 462.77 503.25V505.266ZM471.676 516H469.496V501.551L465.125 503.156V501.188L471.336 498.855H471.676V516ZM479.023 507.445L479.891 498.938H488.633V500.941H481.73L481.215 505.594C482.051 505.102 483 504.855 484.062 504.855C485.617 504.855 486.852 505.371 487.766 506.402C488.68 507.426 489.137 508.812 489.137 510.562C489.137 512.32 488.66 513.707 487.707 514.723C486.762 515.73 485.438 516.234 483.734 516.234C482.227 516.234 480.996 515.816 480.043 514.98C479.09 514.145 478.547 512.988 478.414 511.512H480.465C480.598 512.488 480.945 513.227 481.508 513.727C482.07 514.219 482.812 514.465 483.734 514.465C484.742 514.465 485.531 514.121 486.102 513.434C486.68 512.746 486.969 511.797 486.969 510.586C486.969 509.445 486.656 508.531 486.031 507.844C485.414 507.148 484.59 506.801 483.559 506.801C482.613 506.801 481.871 507.008 481.332 507.422L480.758 507.891L479.023 507.445Z"/><path fill="#000" d="M462.77 581.266C462.441 581.211 462.086 581.184 461.703 581.184C460.281 581.184 459.316 581.789 458.809 583V592H456.641V579.32H458.75L458.785 580.785C459.496 579.652 460.504 579.086 461.809 579.086C462.23 579.086 462.551 579.141 462.77 579.25V581.266ZM471.676 592H469.496V577.551L465.125 579.156V577.188L471.336 574.855H471.676V592ZM486.535 574.926V576.766H486.137C484.449 576.797 483.105 577.297 482.105 578.266C481.105 579.234 480.527 580.598 480.371 582.355C481.27 581.324 482.496 580.809 484.051 580.809C485.535 580.809 486.719 581.332 487.602 582.379C488.492 583.426 488.938 584.777 488.938 586.434C488.938 588.191 488.457 589.598 487.496 590.652C486.543 591.707 485.262 592.234 483.652 592.234C482.02 592.234 480.695 591.609 479.68 590.359C478.664 589.102 478.156 587.484 478.156 585.508V584.676C478.156 581.535 478.824 579.137 480.16 577.48C481.504 575.816 483.5 574.965 486.148 574.926H486.535ZM483.688 582.613C482.945 582.613 482.262 582.836 481.637 583.281C481.012 583.727 480.578 584.285 480.336 584.957V585.754C480.336 587.16 480.652 588.293 481.285 589.152C481.918 590.012 482.707 590.441 483.652 590.441C484.629 590.441 485.395 590.082 485.949 589.363C486.512 588.645 486.793 587.703 486.793 586.539C486.793 585.367 486.508 584.422 485.938 583.703C485.375 582.977 484.625 582.613 483.688 582.613Z"/><path fill="#000" d="M462.77 657.266C462.441 657.211 462.086 657.184 461.703 657.184C460.281 657.184 459.316 657.789 458.809 659V668H456.641V655.32H458.75L458.785 656.785C459.496 655.652 460.504 655.086 461.809 655.086C462.23 655.086 462.551 655.141 462.77 655.25V657.266ZM471.676 668H469.496V653.551L465.125 655.156V653.188L471.336 650.855H471.676V668ZM489.043 652.156L481.977 668H479.703L486.746 652.719H477.512V650.938H489.043V652.156Z"/><path fill="#000" d="M462.77 733.266C462.441 733.211 462.086 733.184 461.703 733.184C460.281 733.184 459.316 733.789 458.809 735V744H456.641V731.32H458.75L458.785 732.785C459.496 731.652 460.504 731.086 461.809 731.086C462.23 731.086 462.551 731.141 462.77 731.25V733.266ZM471.676 744H469.496V729.551L465.125 731.156V729.188L471.336 726.855H471.676V744ZM488.375 731.391C488.375 732.242 488.148 733 487.695 733.664C487.25 734.328 486.645 734.848 485.879 735.223C486.77 735.605 487.473 736.164 487.988 736.898C488.512 737.633 488.773 738.465 488.773 739.395C488.773 740.871 488.273 742.047 487.273 742.922C486.281 743.797 484.973 744.234 483.348 744.234C481.707 744.234 480.391 743.797 479.398 742.922C478.414 742.039 477.922 740.863 477.922 739.395C477.922 738.473 478.172 737.641 478.672 736.898C479.18 736.156 479.879 735.594 480.77 735.211C480.012 734.836 479.414 734.316 478.977 733.652C478.539 732.988 478.32 732.234 478.32 731.391C478.32 729.953 478.781 728.812 479.703 727.969C480.625 727.125 481.84 726.703 483.348 726.703C484.848 726.703 486.059 727.125 486.98 727.969C487.91 728.812 488.375 729.953 488.375 731.391ZM486.605 739.348C486.605 738.395 486.301 737.617 485.691 737.016C485.09 736.414 484.301 736.113 483.324 736.113C482.348 736.113 481.562 736.41 480.969 737.004C480.383 737.598 480.09 738.379 480.09 739.348C480.09 740.316 480.375 741.078 480.945 741.633C481.523 742.188 482.324 742.465 483.348 742.465C484.363 742.465 485.16 742.188 485.738 741.633C486.316 741.07 486.605 740.309 486.605 739.348ZM483.348 728.484C482.496 728.484 481.805 728.75 481.273 729.281C480.75 729.805 480.488 730.52 480.488 731.426C480.488 732.293 480.746 732.996 481.262 733.535C481.785 734.066 482.48 734.332 483.348 734.332C484.215 734.332 484.906 734.066 485.422 733.535C485.945 732.996 486.207 732.293 486.207 731.426C486.207 730.559 485.938 729.852 485.398 729.305C484.859 728.758 484.176 728.484 483.348 728.484Z"/><path fill="#000" d="M462.77 809.266C462.441 809.211 462.086 809.184 461.703 809.184C460.281 809.184 459.316 809.789 458.809 811V820H456.641V807.32H458.75L458.785 808.785C459.496 807.652 460.504 807.086 461.809 807.086C462.23 807.086 462.551 807.141 462.77 807.25V809.266ZM471.676 820H469.496V805.551L465.125 807.156V805.188L471.336 802.855H471.676V820ZM486.336 812.5C485.883 813.039 485.34 813.473 484.707 813.801C484.082 814.129 483.395 814.293 482.645 814.293C481.66 814.293 480.801 814.051 480.066 813.566C479.34 813.082 478.777 812.402 478.379 811.527C477.98 810.645 477.781 809.672 477.781 808.609C477.781 807.469 477.996 806.441 478.426 805.527C478.863 804.613 479.48 803.914 480.277 803.43C481.074 802.945 482.004 802.703 483.066 802.703C484.754 802.703 486.082 803.336 487.051 804.602C488.027 805.859 488.516 807.578 488.516 809.758V810.391C488.516 813.711 487.859 816.137 486.547 817.668C485.234 819.191 483.254 819.973 480.605 820.012H480.184V818.184H480.641C482.43 818.152 483.805 817.688 484.766 816.789C485.727 815.883 486.25 814.453 486.336 812.5ZM482.996 812.5C483.723 812.5 484.391 812.277 485 811.832C485.617 811.387 486.066 810.836 486.348 810.18V809.312C486.348 807.891 486.039 806.734 485.422 805.844C484.805 804.953 484.023 804.508 483.078 804.508C482.125 804.508 481.359 804.875 480.781 805.609C480.203 806.336 479.914 807.297 479.914 808.492C479.914 809.656 480.191 810.617 480.746 811.375C481.309 812.125 482.059 812.5 482.996 812.5Z"/><path fill="#000" d="M462.77 885.266C462.441 885.211 462.086 885.184 461.703 885.184C460.281 885.184 459.316 885.789 458.809 887V896H456.641V883.32H458.75L458.785 884.785C459.496 883.652 460.504 883.086 461.809 883.086C462.23 883.086 462.551 883.141 462.77 883.25V885.266ZM475.73 896H464.551V894.441L470.457 887.879C471.332 886.887 471.934 886.082 472.262 885.465C472.598 884.84 472.766 884.195 472.766 883.531C472.766 882.641 472.496 881.91 471.957 881.34C471.418 880.77 470.699 880.484 469.801 880.484C468.723 880.484 467.883 880.793 467.281 881.41C466.688 882.02 466.391 882.871 466.391 883.965H464.223C464.223 882.395 464.727 881.125 465.734 880.156C466.75 879.188 468.105 878.703 469.801 878.703C471.387 878.703 472.641 879.121 473.562 879.957C474.484 880.785 474.945 881.891 474.945 883.273C474.945 884.953 473.875 886.953 471.734 889.273L467.164 894.23H475.73V896ZM488.727 888.723C488.727 891.262 488.293 893.148 487.426 894.383C486.559 895.617 485.203 896.234 483.359 896.234C481.539 896.234 480.191 895.633 479.316 894.43C478.441 893.219 477.988 891.414 477.957 889.016V886.121C477.957 883.613 478.391 881.75 479.258 880.531C480.125 879.312 481.484 878.703 483.336 878.703C485.172 878.703 486.523 879.293 487.391 880.473C488.258 881.645 488.703 883.457 488.727 885.91V888.723ZM486.559 885.758C486.559 883.922 486.301 882.586 485.785 881.75C485.27 880.906 484.453 880.484 483.336 880.484C482.227 880.484 481.418 880.902 480.91 881.738C480.402 882.574 480.141 883.859 480.125 885.594V889.062C480.125 890.906 480.391 892.27 480.922 893.152C481.461 894.027 482.273 894.465 483.359 894.465C484.43 894.465 485.223 894.051 485.738 893.223C486.262 892.395 486.535 891.09 486.559 889.309V885.758Z"/><path fill="#000" d="M773.77 201.266C773.441 201.211 773.086 201.184 772.703 201.184C771.281 201.184 770.316 201.789 769.809 203V212H767.641V199.32H769.75L769.785 200.785C770.496 199.652 771.504 199.086 772.809 199.086C773.23 199.086 773.551 199.141 773.77 199.25V201.266ZM778.703 202.414H780.332C781.355 202.398 782.16 202.129 782.746 201.605C783.332 201.082 783.625 200.375 783.625 199.484C783.625 197.484 782.629 196.484 780.637 196.484C779.699 196.484 778.949 196.754 778.387 197.293C777.832 197.824 777.555 198.531 777.555 199.414H775.387C775.387 198.062 775.879 196.941 776.863 196.051C777.855 195.152 779.113 194.703 780.637 194.703C782.246 194.703 783.508 195.129 784.422 195.98C785.336 196.832 785.793 198.016 785.793 199.531C785.793 200.273 785.551 200.992 785.066 201.688C784.59 202.383 783.938 202.902 783.109 203.246C784.047 203.543 784.77 204.035 785.277 204.723C785.793 205.41 786.051 206.25 786.051 207.242C786.051 208.773 785.551 209.988 784.551 210.887C783.551 211.785 782.25 212.234 780.648 212.234C779.047 212.234 777.742 211.801 776.734 210.934C775.734 210.066 775.234 208.922 775.234 207.5H777.414C777.414 208.398 777.707 209.117 778.293 209.656C778.879 210.195 779.664 210.465 780.648 210.465C781.695 210.465 782.496 210.191 783.051 209.645C783.605 209.098 783.883 208.312 783.883 207.289C783.883 206.297 783.578 205.535 782.969 205.004C782.359 204.473 781.48 204.199 780.332 204.184H778.703V202.414ZM796.152 212H793.973V197.551L789.602 199.156V197.188L795.812 194.855H796.152V212Z"/><path fill="#000" d="M773.77 277.266C773.441 277.211 773.086 277.184 772.703 277.184C771.281 277.184 770.316 277.789 769.809 279V288H767.641V275.32H769.75L769.785 276.785C770.496 275.652 771.504 275.086 772.809 275.086C773.23 275.086 773.551 275.141 773.77 275.25V277.266ZM778.703 278.414H780.332C781.355 278.398 782.16 278.129 782.746 277.605C783.332 277.082 783.625 276.375 783.625 275.484C783.625 273.484 782.629 272.484 780.637 272.484C779.699 272.484 778.949 272.754 778.387 273.293C777.832 273.824 777.555 274.531 777.555 275.414H775.387C775.387 274.062 775.879 272.941 776.863 272.051C777.855 271.152 779.113 270.703 780.637 270.703C782.246 270.703 783.508 271.129 784.422 271.98C785.336 272.832 785.793 274.016 785.793 275.531C785.793 276.273 785.551 276.992 785.066 277.688C784.59 278.383 783.938 278.902 783.109 279.246C784.047 279.543 784.77 280.035 785.277 280.723C785.793 281.41 786.051 282.25 786.051 283.242C786.051 284.773 785.551 285.988 784.551 286.887C783.551 287.785 782.25 288.234 780.648 288.234C779.047 288.234 777.742 287.801 776.734 286.934C775.734 286.066 775.234 284.922 775.234 283.5H777.414C777.414 284.398 777.707 285.117 778.293 285.656C778.879 286.195 779.664 286.465 780.648 286.465C781.695 286.465 782.496 286.191 783.051 285.645C783.605 285.098 783.883 284.312 783.883 283.289C783.883 282.297 783.578 281.535 782.969 281.004C782.359 280.473 781.48 280.199 780.332 280.184H778.703V278.414ZM800.207 288H789.027V286.441L794.934 279.879C795.809 278.887 796.41 278.082 796.738 277.465C797.074 276.84 797.242 276.195 797.242 275.531C797.242 274.641 796.973 273.91 796.434 273.34C795.895 272.77 795.176 272.484 794.277 272.484C793.199 272.484 792.359 272.793 791.758 273.41C791.164 274.02 790.867 274.871 790.867 275.965H788.699C788.699 274.395 789.203 273.125 790.211 272.156C791.227 271.188 792.582 270.703 794.277 270.703C795.863 270.703 797.117 271.121 798.039 271.957C798.961 272.785 799.422 273.891 799.422 275.273C799.422 276.953 798.352 278.953 796.211 281.273L791.641 286.23H800.207V288Z"/><path fill="#000" d="M773.77 353.266C773.441 353.211 773.086 353.184 772.703 353.184C771.281 353.184 770.316 353.789 769.809 355V364H767.641V351.32H769.75L769.785 352.785C770.496 351.652 771.504 351.086 772.809 351.086C773.23 351.086 773.551 351.141 773.77 351.25V353.266ZM778.703 354.414H780.332C781.355 354.398 782.16 354.129 782.746 353.605C783.332 353.082 783.625 352.375 783.625 351.484C783.625 349.484 782.629 348.484 780.637 348.484C779.699 348.484 778.949 348.754 778.387 349.293C777.832 349.824 777.555 350.531 777.555 351.414H775.387C775.387 350.062 775.879 348.941 776.863 348.051C777.855 347.152 779.113 346.703 780.637 346.703C782.246 346.703 783.508 347.129 784.422 347.98C785.336 348.832 785.793 350.016 785.793 351.531C785.793 352.273 785.551 352.992 785.066 353.688C784.59 354.383 783.938 354.902 783.109 355.246C784.047 355.543 784.77 356.035 785.277 356.723C785.793 357.41 786.051 358.25 786.051 359.242C786.051 360.773 785.551 361.988 784.551 362.887C783.551 363.785 782.25 364.234 780.648 364.234C779.047 364.234 777.742 363.801 776.734 362.934C775.734 362.066 775.234 360.922 775.234 359.5H777.414C777.414 360.398 777.707 361.117 778.293 361.656C778.879 362.195 779.664 362.465 780.648 362.465C781.695 362.465 782.496 362.191 783.051 361.645C783.605 361.098 783.883 360.312 783.883 359.289C783.883 358.297 783.578 357.535 782.969 357.004C782.359 356.473 781.48 356.199 780.332 356.184H778.703V354.414ZM792.18 354.414H793.809C794.832 354.398 795.637 354.129 796.223 353.605C796.809 353.082 797.102 352.375 797.102 351.484C797.102 349.484 796.105 348.484 794.113 348.484C793.176 348.484 792.426 348.754 791.863 349.293C791.309 349.824 791.031 350.531 791.031 351.414H788.863C788.863 350.062 789.355 348.941 790.34 348.051C791.332 347.152 792.59 346.703 794.113 346.703C795.723 346.703 796.984 347.129 797.898 347.98C798.812 348.832 799.27 350.016 799.27 351.531C799.27 352.273 799.027 352.992 798.543 353.688C798.066 354.383 797.414 354.902 796.586 355.246C797.523 355.543 798.246 356.035 798.754 356.723C799.27 357.41 799.527 358.25 799.527 359.242C799.527 360.773 799.027 361.988 798.027 362.887C797.027 363.785 795.727 364.234 794.125 364.234C792.523 364.234 791.219 363.801 790.211 362.934C789.211 362.066 788.711 360.922 788.711 359.5H790.891C790.891 360.398 791.184 361.117 791.77 361.656C792.355 362.195 793.141 362.465 794.125 362.465C795.172 362.465 795.973 362.191 796.527 361.645C797.082 361.098 797.359 360.312 797.359 359.289C797.359 358.297 797.055 357.535 796.445 357.004C795.836 356.473 794.957 356.199 793.809 356.184H792.18V354.414Z"/><path fill="#000" d="M773.77 429.266C773.441 429.211 773.086 429.184 772.703 429.184C771.281 429.184 770.316 429.789 769.809 431V440H767.641V427.32H769.75L769.785 428.785C770.496 427.652 771.504 427.086 772.809 427.086C773.23 427.086 773.551 427.141 773.77 427.25V429.266ZM778.703 430.414H780.332C781.355 430.398 782.16 430.129 782.746 429.605C783.332 429.082 783.625 428.375 783.625 427.484C783.625 425.484 782.629 424.484 780.637 424.484C779.699 424.484 778.949 424.754 778.387 425.293C777.832 425.824 777.555 426.531 777.555 427.414H775.387C775.387 426.062 775.879 424.941 776.863 424.051C777.855 423.152 779.113 422.703 780.637 422.703C782.246 422.703 783.508 423.129 784.422 423.98C785.336 424.832 785.793 426.016 785.793 427.531C785.793 428.273 785.551 428.992 785.066 429.688C784.59 430.383 783.938 430.902 783.109 431.246C784.047 431.543 784.77 432.035 785.277 432.723C785.793 433.41 786.051 434.25 786.051 435.242C786.051 436.773 785.551 437.988 784.551 438.887C783.551 439.785 782.25 440.234 780.648 440.234C779.047 440.234 777.742 439.801 776.734 438.934C775.734 438.066 775.234 436.922 775.234 435.5H777.414C777.414 436.398 777.707 437.117 778.293 437.656C778.879 438.195 779.664 438.465 780.648 438.465C781.695 438.465 782.496 438.191 783.051 437.645C783.605 437.098 783.883 436.312 783.883 435.289C783.883 434.297 783.578 433.535 782.969 433.004C782.359 432.473 781.48 432.199 780.332 432.184H778.703V430.414ZM798.18 434.27H800.547V436.039H798.18V440H796V436.039H788.23V434.762L795.871 422.938H798.18V434.27ZM790.691 434.27H796V425.902L795.742 426.371L790.691 434.27Z"/><path fill="#000" d="M773.77 505.266C773.441 505.211 773.086 505.184 772.703 505.184C771.281 505.184 770.316 505.789 769.809 507V516H767.641V503.32H769.75L769.785 504.785C770.496 503.652 771.504 503.086 772.809 503.086C773.23 503.086 773.551 503.141 773.77 503.25V505.266ZM778.703 506.414H780.332C781.355 506.398 782.16 506.129 782.746 505.605C783.332 505.082 783.625 504.375 783.625 503.484C783.625 501.484 782.629 500.484 780.637 500.484C779.699 500.484 778.949 500.754 778.387 501.293C777.832 501.824 777.555 502.531 777.555 503.414H775.387C775.387 502.062 775.879 500.941 776.863 500.051C777.855 499.152 779.113 498.703 780.637 498.703C782.246 498.703 783.508 499.129 784.422 499.98C785.336 500.832 785.793 502.016 785.793 503.531C785.793 504.273 785.551 504.992 785.066 505.688C784.59 506.383 783.938 506.902 783.109 507.246C784.047 507.543 784.77 508.035 785.277 508.723C785.793 509.41 786.051 510.25 786.051 511.242C786.051 512.773 785.551 513.988 784.551 514.887C783.551 515.785 782.25 516.234 780.648 516.234C779.047 516.234 777.742 515.801 776.734 514.934C775.734 514.066 775.234 512.922 775.234 511.5H777.414C777.414 512.398 777.707 513.117 778.293 513.656C778.879 514.195 779.664 514.465 780.648 514.465C781.695 514.465 782.496 514.191 783.051 513.645C783.605 513.098 783.883 512.312 783.883 511.289C783.883 510.297 783.578 509.535 782.969 509.004C782.359 508.473 781.48 508.199 780.332 508.184H778.703V506.414ZM790.023 507.445L790.891 498.938H799.633V500.941H792.73L792.215 505.594C793.051 505.102 794 504.855 795.062 504.855C796.617 504.855 797.852 505.371 798.766 506.402C799.68 507.426 800.137 508.812 800.137 510.562C800.137 512.32 799.66 513.707 798.707 514.723C797.762 515.73 796.438 516.234 794.734 516.234C793.227 516.234 791.996 515.816 791.043 514.98C790.09 514.145 789.547 512.988 789.414 511.512H791.465C791.598 512.488 791.945 513.227 792.508 513.727C793.07 514.219 793.812 514.465 794.734 514.465C795.742 514.465 796.531 514.121 797.102 513.434C797.68 512.746 797.969 511.797 797.969 510.586C797.969 509.445 797.656 508.531 797.031 507.844C796.414 507.148 795.59 506.801 794.559 506.801C793.613 506.801 792.871 507.008 792.332 507.422L791.758 507.891L790.023 507.445Z"/><path fill="#000" d="M773.77 581.266C773.441 581.211 773.086 581.184 772.703 581.184C771.281 581.184 770.316 581.789 769.809 583V592H767.641V579.32H769.75L769.785 580.785C770.496 579.652 771.504 579.086 772.809 579.086C773.23 579.086 773.551 579.141 773.77 579.25V581.266ZM778.703 582.414H780.332C781.355 582.398 782.16 582.129 782.746 581.605C783.332 581.082 783.625 580.375 783.625 579.484C783.625 577.484 782.629 576.484 780.637 576.484C779.699 576.484 778.949 576.754 778.387 577.293C777.832 577.824 777.555 578.531 777.555 579.414H775.387C775.387 578.062 775.879 576.941 776.863 576.051C777.855 575.152 779.113 574.703 780.637 574.703C782.246 574.703 783.508 575.129 784.422 575.98C785.336 576.832 785.793 578.016 785.793 579.531C785.793 580.273 785.551 580.992 785.066 581.688C784.59 582.383 783.938 582.902 783.109 583.246C784.047 583.543 784.77 584.035 785.277 584.723C785.793 585.41 786.051 586.25 786.051 587.242C786.051 588.773 785.551 589.988 784.551 590.887C783.551 591.785 782.25 592.234 780.648 592.234C779.047 592.234 777.742 591.801 776.734 590.934C775.734 590.066 775.234 588.922 775.234 587.5H777.414C777.414 588.398 777.707 589.117 778.293 589.656C778.879 590.195 779.664 590.465 780.648 590.465C781.695 590.465 782.496 590.191 783.051 589.645C783.605 589.098 783.883 588.312 783.883 587.289C783.883 586.297 783.578 585.535 782.969 585.004C782.359 584.473 781.48 584.199 780.332 584.184H778.703V582.414ZM797.535 574.926V576.766H797.137C795.449 576.797 794.105 577.297 793.105 578.266C792.105 579.234 791.527 580.598 791.371 582.355C792.27 581.324 793.496 580.809 795.051 580.809C796.535 580.809 797.719 581.332 798.602 582.379C799.492 583.426 799.938 584.777 799.938 586.434C799.938 588.191 799.457 589.598 798.496 590.652C797.543 591.707 796.262 592.234 794.652 592.234C793.02 592.234 791.695 591.609 790.68 590.359C789.664 589.102 789.156 587.484 789.156 585.508V584.676C789.156 581.535 789.824 579.137 791.16 577.48C792.504 575.816 794.5 574.965 797.148 574.926H797.535ZM794.688 582.613C793.945 582.613 793.262 582.836 792.637 583.281C792.012 583.727 791.578 584.285 791.336 584.957V585.754C791.336 587.16 791.652 588.293 792.285 589.152C792.918 590.012 793.707 590.441 794.652 590.441C795.629 590.441 796.395 590.082 796.949 589.363C797.512 588.645 797.793 587.703 797.793 586.539C797.793 585.367 797.508 584.422 796.938 583.703C796.375 582.977 795.625 582.613 794.688 582.613Z"/><path fill="#000" d="M773.77 657.266C773.441 657.211 773.086 657.184 772.703 657.184C771.281 657.184 770.316 657.789 769.809 659V668H767.641V655.32H769.75L769.785 656.785C770.496 655.652 771.504 655.086 772.809 655.086C773.23 655.086 773.551 655.141 773.77 655.25V657.266ZM778.703 658.414H780.332C781.355 658.398 782.16 658.129 782.746 657.605C783.332 657.082 783.625 656.375 783.625 655.484C783.625 653.484 782.629 652.484 780.637 652.484C779.699 652.484 778.949 652.754 778.387 653.293C777.832 653.824 777.555 654.531 777.555 655.414H775.387C775.387 654.062 775.879 652.941 776.863 652.051C777.855 651.152 779.113 650.703 780.637 650.703C782.246 650.703 783.508 651.129 784.422 651.98C785.336 652.832 785.793 654.016 785.793 655.531C785.793 656.273 785.551 656.992 785.066 657.688C784.59 658.383 783.938 658.902 783.109 659.246C784.047 659.543 784.77 660.035 785.277 660.723C785.793 661.41 786.051 662.25 786.051 663.242C786.051 664.773 785.551 665.988 784.551 666.887C783.551 667.785 782.25 668.234 780.648 668.234C779.047 668.234 777.742 667.801 776.734 666.934C775.734 666.066 775.234 664.922 775.234 663.5H777.414C777.414 664.398 777.707 665.117 778.293 665.656C778.879 666.195 779.664 666.465 780.648 666.465C781.695 666.465 782.496 666.191 783.051 665.645C783.605 665.098 783.883 664.312 783.883 663.289C783.883 662.297 783.578 661.535 782.969 661.004C782.359 660.473 781.48 660.199 780.332 660.184H778.703V658.414ZM800.043 652.156L792.977 668H790.703L797.746 652.719H788.512V650.938H800.043V652.156Z"/><path fill="#000" d="M773.77 733.266C773.441 733.211 773.086 733.184 772.703 733.184C771.281 733.184 770.316 733.789 769.809 735V744H767.641V731.32H769.75L769.785 732.785C770.496 731.652 771.504 731.086 772.809 731.086C773.23 731.086 773.551 731.141 773.77 731.25V733.266ZM778.703 734.414H780.332C781.355 734.398 782.16 734.129 782.746 733.605C783.332 733.082 783.625 732.375 783.625 731.484C783.625 729.484 782.629 728.484 780.637 728.484C779.699 728.484 778.949 728.754 778.387 729.293C777.832 729.824 777.555 730.531 777.555 731.414H775.387C775.387 730.062 775.879 728.941 776.863 728.051C777.855 727.152 779.113 726.703 780.637 726.703C782.246 726.703 783.508 727.129 784.422 727.98C785.336 728.832 785.793 730.016 785.793 731.531C785.793 732.273 785.551 732.992 785.066 733.688C784.59 734.383 783.938 734.902 783.109 735.246C784.047 735.543 784.77 736.035 785.277 736.723C785.793 737.41 786.051 738.25 786.051 739.242C786.051 740.773 785.551 741.988 784.551 742.887C783.551 743.785 782.25 744.234 780.648 744.234C779.047 744.234 777.742 743.801 776.734 742.934C775.734 742.066 775.234 740.922 775.234 739.5H777.414C777.414 740.398 777.707 741.117 778.293 741.656C778.879 742.195 779.664 742.465 780.648 742.465C781.695 742.465 782.496 742.191 783.051 741.645C783.605 741.098 783.883 740.312 783.883 739.289C783.883 738.297 783.578 737.535 782.969 737.004C782.359 736.473 781.48 736.199 780.332 736.184H778.703V734.414ZM799.375 731.391C799.375 732.242 799.148 733 798.695 733.664C798.25 734.328 797.645 734.848 796.879 735.223C797.77 735.605 798.473 736.164 798.988 736.898C799.512 737.633 799.773 738.465 799.773 739.395C799.773 740.871 799.273 742.047 798.273 742.922C797.281 743.797 795.973 744.234 794.348 744.234C792.707 744.234 791.391 743.797 790.398 742.922C789.414 742.039 788.922 740.863 788.922 739.395C788.922 738.473 789.172 737.641 789.672 736.898C790.18 736.156 790.879 735.594 791.77 735.211C791.012 734.836 790.414 734.316 789.977 733.652C789.539 732.988 789.32 732.234 789.32 731.391C789.32 729.953 789.781 728.812 790.703 727.969C791.625 727.125 792.84 726.703 794.348 726.703C795.848 726.703 797.059 727.125 797.98 727.969C798.91 728.812 799.375 729.953 799.375 731.391ZM797.605 739.348C797.605 738.395 797.301 737.617 796.691 737.016C796.09 736.414 795.301 736.113 794.324 736.113C793.348 736.113 792.562 736.41 791.969 737.004C791.383 737.598 791.09 738.379 791.09 739.348C791.09 740.316 791.375 741.078 791.945 741.633C792.523 742.188 793.324 742.465 794.348 742.465C795.363 742.465 796.16 742.188 796.738 741.633C797.316 741.07 797.605 740.309 797.605 739.348ZM794.348 728.484C793.496 728.484 792.805 728.75 792.273 729.281C791.75 729.805 791.488 730.52 791.488 731.426C791.488 732.293 791.746 732.996 792.262 733.535C792.785 734.066 793.48 734.332 794.348 734.332C795.215 734.332 795.906 734.066 796.422 733.535C796.945 732.996 797.207 732.293 797.207 731.426C797.207 730.559 796.938 729.852 796.398 729.305C795.859 728.758 795.176 728.484 794.348 728.484Z"/><path fill="#000" d="M773.77 809.266C773.441 809.211 773.086 809.184 772.703 809.184C771.281 809.184 770.316 809.789 769.809 811V820H767.641V807.32H769.75L769.785 808.785C770.496 807.652 771.504 807.086 772.809 807.086C773.23 807.086 773.551 807.141 773.77 807.25V809.266ZM778.703 810.414H780.332C781.355 810.398 782.16 810.129 782.746 809.605C783.332 809.082 783.625 808.375 783.625 807.484C783.625 805.484 782.629 804.484 780.637 804.484C779.699 804.484 778.949 804.754 778.387 805.293C777.832 805.824 777.555 806.531 777.555 807.414H775.387C775.387 806.062 775.879 804.941 776.863 804.051C777.855 803.152 779.113 802.703 780.637 802.703C782.246 802.703 783.508 803.129 784.422 803.98C785.336 804.832 785.793 806.016 785.793 807.531C785.793 808.273 785.551 808.992 785.066 809.688C784.59 810.383 783.938 810.902 783.109 811.246C784.047 811.543 784.77 812.035 785.277 812.723C785.793 813.41 786.051 814.25 786.051 815.242C786.051 816.773 785.551 817.988 784.551 818.887C783.551 819.785 782.25 820.234 780.648 820.234C779.047 820.234 777.742 819.801 776.734 818.934C775.734 818.066 775.234 816.922 775.234 815.5H777.414C777.414 816.398 777.707 817.117 778.293 817.656C778.879 818.195 779.664 818.465 780.648 818.465C781.695 818.465 782.496 818.191 783.051 817.645C783.605 817.098 783.883 816.312 783.883 815.289C783.883 814.297 783.578 813.535 782.969 813.004C782.359 812.473 781.48 812.199 780.332 812.184H778.703V810.414ZM797.336 812.5C796.883 813.039 796.34 813.473 795.707 813.801C795.082 814.129 794.395 814.293 793.645 814.293C792.66 814.293 791.801 814.051 791.066 813.566C790.34 813.082 789.777 812.402 789.379 811.527C788.98 810.645 788.781 809.672 788.781 808.609C788.781 807.469 788.996 806.441 789.426 805.527C789.863 804.613 790.48 803.914 791.277 803.43C792.074 802.945 793.004 802.703 794.066 802.703C795.754 802.703 797.082 803.336 798.051 804.602C799.027 805.859 799.516 807.578 799.516 809.758V810.391C799.516 813.711 798.859 816.137 797.547 817.668C796.234 819.191 794.254 819.973 791.605 820.012H791.184V818.184H791.641C793.43 818.152 794.805 817.688 795.766 816.789C796.727 815.883 797.25 814.453 797.336 812.5ZM793.996 812.5C794.723 812.5 795.391 812.277 796 811.832C796.617 811.387 797.066 810.836 797.348 810.18V809.312C797.348 807.891 797.039 806.734 796.422 805.844C795.805 804.953 795.023 804.508 794.078 804.508C793.125 804.508 792.359 804.875 791.781 805.609C791.203 806.336 790.914 807.297 790.914 808.492C790.914 809.656 791.191 810.617 791.746 811.375C792.309 812.125 793.059 812.5 793.996 812.5Z"/><path fill="#000" d="M773.77 885.266C773.441 885.211 773.086 885.184 772.703 885.184C771.281 885.184 770.316 885.789 769.809 887V896H767.641V883.32H769.75L769.785 884.785C770.496 883.652 771.504 883.086 772.809 883.086C773.23 883.086 773.551 883.141 773.77 883.25V885.266ZM784.703 890.27H787.07V892.039H784.703V896H782.523V892.039H774.754V890.762L782.395 878.938H784.703V890.27ZM777.215 890.27H782.523V881.902L782.266 882.371L777.215 890.27ZM799.727 888.723C799.727 891.262 799.293 893.148 798.426 894.383C797.559 895.617 796.203 896.234 794.359 896.234C792.539 896.234 791.191 895.633 790.316 894.43C789.441 893.219 788.988 891.414 788.957 889.016V886.121C788.957 883.613 789.391 881.75 790.258 880.531C791.125 879.312 792.484 878.703 794.336 878.703C796.172 878.703 797.523 879.293 798.391 880.473C799.258 881.645 799.703 883.457 799.727 885.91V888.723ZM797.559 885.758C797.559 883.922 797.301 882.586 796.785 881.75C796.27 880.906 795.453 880.484 794.336 880.484C793.227 880.484 792.418 880.902 791.91 881.738C791.402 882.574 791.141 883.859 791.125 885.594V889.062C791.125 890.906 791.391 892.27 791.922 893.152C792.461 894.027 793.273 894.465 794.359 894.465C795.43 894.465 796.223 894.051 796.738 893.223C797.262 892.395 797.535 891.09 797.559 889.309V885.758Z"/><path fill="#000" d="M1093.77 201.266C1093.44 201.211 1093.09 201.184 1092.7 201.184C1091.28 201.184 1090.32 201.789 1089.81 203V212H1087.64V199.32H1089.75L1089.79 200.785C1090.5 199.652 1091.5 199.086 1092.81 199.086C1093.23 199.086 1093.55 199.141 1093.77 199.25V201.266ZM1104.7 206.27H1107.07V208.039H1104.7V212H1102.52V208.039H1094.75V206.762L1102.39 194.938H1104.7V206.27ZM1097.21 206.27H1102.52V197.902L1102.27 198.371L1097.21 206.27ZM1116.15 212H1113.97V197.551L1109.6 199.156V197.188L1115.81 194.855H1116.15V212Z"/><path fill="#000" d="M1093.77 277.266C1093.44 277.211 1093.09 277.184 1092.7 277.184C1091.28 277.184 1090.32 277.789 1089.81 279V288H1087.64V275.32H1089.75L1089.79 276.785C1090.5 275.652 1091.5 275.086 1092.81 275.086C1093.23 275.086 1093.55 275.141 1093.77 275.25V277.266ZM1104.7 282.27H1107.07V284.039H1104.7V288H1102.52V284.039H1094.75V282.762L1102.39 270.938H1104.7V282.27ZM1097.21 282.27H1102.52V273.902L1102.27 274.371L1097.21 282.27ZM1120.21 288H1109.03V286.441L1114.93 279.879C1115.81 278.887 1116.41 278.082 1116.74 277.465C1117.07 276.84 1117.24 276.195 1117.24 275.531C1117.24 274.641 1116.97 273.91 1116.43 273.34C1115.89 272.77 1115.18 272.484 1114.28 272.484C1113.2 272.484 1112.36 272.793 1111.76 273.41C1111.16 274.02 1110.87 274.871 1110.87 275.965H1108.7C1108.7 274.395 1109.2 273.125 1110.21 272.156C1111.23 271.188 1112.58 270.703 1114.28 270.703C1115.86 270.703 1117.12 271.121 1118.04 271.957C1118.96 272.785 1119.42 273.891 1119.42 275.273C1119.42 276.953 1118.35 278.953 1116.21 281.273L1111.64 286.23H1120.21V288Z"/><path fill="#000" d="M1093.77 353.266C1093.44 353.211 1093.09 353.184 1092.7 353.184C1091.28 353.184 1090.32 353.789 1089.81 355V364H1087.64V351.32H1089.75L1089.79 352.785C1090.5 351.652 1091.5 351.086 1092.81 351.086C1093.23 351.086 1093.55 351.141 1093.77 351.25V353.266ZM1104.7 358.27H1107.07V360.039H1104.7V364H1102.52V360.039H1094.75V358.762L1102.39 346.938H1104.7V358.27ZM1097.21 358.27H1102.52V349.902L1102.27 350.371L1097.21 358.27ZM1112.18 354.414H1113.81C1114.83 354.398 1115.64 354.129 1116.22 353.605C1116.81 353.082 1117.1 352.375 1117.1 351.484C1117.1 349.484 1116.11 348.484 1114.11 348.484C1113.18 348.484 1112.43 348.754 1111.86 349.293C1111.31 349.824 1111.03 350.531 1111.03 351.414H1108.86C1108.86 350.062 1109.36 348.941 1110.34 348.051C1111.33 347.152 1112.59 346.703 1114.11 346.703C1115.72 346.703 1116.98 347.129 1117.9 347.98C1118.81 348.832 1119.27 350.016 1119.27 351.531C1119.27 352.273 1119.03 352.992 1118.54 353.688C1118.07 354.383 1117.41 354.902 1116.59 355.246C1117.52 355.543 1118.25 356.035 1118.75 356.723C1119.27 357.41 1119.53 358.25 1119.53 359.242C1119.53 360.773 1119.03 361.988 1118.03 362.887C1117.03 363.785 1115.73 364.234 1114.12 364.234C1112.52 364.234 1111.22 363.801 1110.21 362.934C1109.21 362.066 1108.71 360.922 1108.71 359.5H1110.89C1110.89 360.398 1111.18 361.117 1111.77 361.656C1112.36 362.195 1113.14 362.465 1114.12 362.465C1115.17 362.465 1115.97 362.191 1116.53 361.645C1117.08 361.098 1117.36 360.312 1117.36 359.289C1117.36 358.297 1117.05 357.535 1116.45 357.004C1115.84 356.473 1114.96 356.199 1113.81 356.184H1112.18V354.414Z"/><path fill="#000" d="M1093.77 429.266C1093.44 429.211 1093.09 429.184 1092.7 429.184C1091.28 429.184 1090.32 429.789 1089.81 431V440H1087.64V427.32H1089.75L1089.79 428.785C1090.5 427.652 1091.5 427.086 1092.81 427.086C1093.23 427.086 1093.55 427.141 1093.77 427.25V429.266ZM1104.7 434.27H1107.07V436.039H1104.7V440H1102.52V436.039H1094.75V434.762L1102.39 422.938H1104.7V434.27ZM1097.21 434.27H1102.52V425.902L1102.27 426.371L1097.21 434.27ZM1118.18 434.27H1120.55V436.039H1118.18V440H1116V436.039H1108.23V434.762L1115.87 422.938H1118.18V434.27ZM1110.69 434.27H1116V425.902L1115.74 426.371L1110.69 434.27Z"/><path fill="#000" d="M1093.77 505.266C1093.44 505.211 1093.09 505.184 1092.7 505.184C1091.28 505.184 1090.32 505.789 1089.81 507V516H1087.64V503.32H1089.75L1089.79 504.785C1090.5 503.652 1091.5 503.086 1092.81 503.086C1093.23 503.086 1093.55 503.141 1093.77 503.25V505.266ZM1104.7 510.27H1107.07V512.039H1104.7V516H1102.52V512.039H1094.75V510.762L1102.39 498.938H1104.7V510.27ZM1097.21 510.27H1102.52V501.902L1102.27 502.371L1097.21 510.27ZM1110.02 507.445L1110.89 498.938H1119.63V500.941H1112.73L1112.21 505.594C1113.05 505.102 1114 504.855 1115.06 504.855C1116.62 504.855 1117.85 505.371 1118.77 506.402C1119.68 507.426 1120.14 508.812 1120.14 510.562C1120.14 512.32 1119.66 513.707 1118.71 514.723C1117.76 515.73 1116.44 516.234 1114.73 516.234C1113.23 516.234 1112 515.816 1111.04 514.98C1110.09 514.145 1109.55 512.988 1109.41 511.512H1111.46C1111.6 512.488 1111.95 513.227 1112.51 513.727C1113.07 514.219 1113.81 514.465 1114.73 514.465C1115.74 514.465 1116.53 514.121 1117.1 513.434C1117.68 512.746 1117.97 511.797 1117.97 510.586C1117.97 509.445 1117.66 508.531 1117.03 507.844C1116.41 507.148 1115.59 506.801 1114.56 506.801C1113.61 506.801 1112.87 507.008 1112.33 507.422L1111.76 507.891L1110.02 507.445Z"/><path fill="#000" d="M1093.77 581.266C1093.44 581.211 1093.09 581.184 1092.7 581.184C1091.28 581.184 1090.32 581.789 1089.81 583V592H1087.64V579.32H1089.75L1089.79 580.785C1090.5 579.652 1091.5 579.086 1092.81 579.086C1093.23 579.086 1093.55 579.141 1093.77 579.25V581.266ZM1104.7 586.27H1107.07V588.039H1104.7V592H1102.52V588.039H1094.75V586.762L1102.39 574.938H1104.7V586.27ZM1097.21 586.27H1102.52V577.902L1102.27 578.371L1097.21 586.27ZM1117.54 574.926V576.766H1117.14C1115.45 576.797 1114.11 577.297 1113.11 578.266C1112.11 579.234 1111.53 580.598 1111.37 582.355C1112.27 581.324 1113.5 580.809 1115.05 580.809C1116.54 580.809 1117.72 581.332 1118.6 582.379C1119.49 583.426 1119.94 584.777 1119.94 586.434C1119.94 588.191 1119.46 589.598 1118.5 590.652C1117.54 591.707 1116.26 592.234 1114.65 592.234C1113.02 592.234 1111.7 591.609 1110.68 590.359C1109.66 589.102 1109.16 587.484 1109.16 585.508V584.676C1109.16 581.535 1109.82 579.137 1111.16 577.48C1112.5 575.816 1114.5 574.965 1117.15 574.926H1117.54ZM1114.69 582.613C1113.95 582.613 1113.26 582.836 1112.64 583.281C1112.01 583.727 1111.58 584.285 1111.34 584.957V585.754C1111.34 587.16 1111.65 588.293 1112.29 589.152C1112.92 590.012 1113.71 590.441 1114.65 590.441C1115.63 590.441 1116.39 590.082 1116.95 589.363C1117.51 588.645 1117.79 587.703 1117.79 586.539C1117.79 585.367 1117.51 584.422 1116.94 583.703C1116.38 582.977 1115.62 582.613 1114.69 582.613Z"/><path fill="#000" d="M1093.77 657.266C1093.44 657.211 1093.09 657.184 1092.7 657.184C1091.28 657.184 1090.32 657.789 1089.81 659V668H1087.64V655.32H1089.75L1089.79 656.785C1090.5 655.652 1091.5 655.086 1092.81 655.086C1093.23 655.086 1093.55 655.141 1093.77 655.25V657.266ZM1104.7 662.27H1107.07V664.039H1104.7V668H1102.52V664.039H1094.75V662.762L1102.39 650.938H1104.7V662.27ZM1097.21 662.27H1102.52V653.902L1102.27 654.371L1097.21 662.27ZM1120.04 652.156L1112.98 668H1110.7L1117.75 652.719H1108.51V650.938H1120.04V652.156Z"/><path fill="#000" d="M1093.77 733.266C1093.44 733.211 1093.09 733.184 1092.7 733.184C1091.28 733.184 1090.32 733.789 1089.81 735V744H1087.64V731.32H1089.75L1089.79 732.785C1090.5 731.652 1091.5 731.086 1092.81 731.086C1093.23 731.086 1093.55 731.141 1093.77 731.25V733.266ZM1104.7 738.27H1107.07V740.039H1104.7V744H1102.52V740.039H1094.75V738.762L1102.39 726.938H1104.7V738.27ZM1097.21 738.27H1102.52V729.902L1102.27 730.371L1097.21 738.27ZM1119.38 731.391C1119.38 732.242 1119.15 733 1118.7 733.664C1118.25 734.328 1117.64 734.848 1116.88 735.223C1117.77 735.605 1118.47 736.164 1118.99 736.898C1119.51 737.633 1119.77 738.465 1119.77 739.395C1119.77 740.871 1119.27 742.047 1118.27 742.922C1117.28 743.797 1115.97 744.234 1114.35 744.234C1112.71 744.234 1111.39 743.797 1110.4 742.922C1109.41 742.039 1108.92 740.863 1108.92 739.395C1108.92 738.473 1109.17 737.641 1109.67 736.898C1110.18 736.156 1110.88 735.594 1111.77 735.211C1111.01 734.836 1110.41 734.316 1109.98 733.652C1109.54 732.988 1109.32 732.234 1109.32 731.391C1109.32 729.953 1109.78 728.812 1110.7 727.969C1111.62 727.125 1112.84 726.703 1114.35 726.703C1115.85 726.703 1117.06 727.125 1117.98 727.969C1118.91 728.812 1119.38 729.953 1119.38 731.391ZM1117.61 739.348C1117.61 738.395 1117.3 737.617 1116.69 737.016C1116.09 736.414 1115.3 736.113 1114.32 736.113C1113.35 736.113 1112.56 736.41 1111.97 737.004C1111.38 737.598 1111.09 738.379 1111.09 739.348C1111.09 740.316 1111.38 741.078 1111.95 741.633C1112.52 742.188 1113.32 742.465 1114.35 742.465C1115.36 742.465 1116.16 742.188 1116.74 741.633C1117.32 741.07 1117.61 740.309 1117.61 739.348ZM1114.35 728.484C1113.5 728.484 1112.8 728.75 1112.27 729.281C1111.75 729.805 1111.49 730.52 1111.49 731.426C1111.49 732.293 1111.75 732.996 1112.26 733.535C1112.79 734.066 1113.48 734.332 1114.35 734.332C1115.21 734.332 1115.91 734.066 1116.42 733.535C1116.95 732.996 1117.21 732.293 1117.21 731.426C1117.21 730.559 1116.94 729.852 1116.4 729.305C1115.86 728.758 1115.18 728.484 1114.35 728.484Z"/><path fill="#000" d="M1093.77 809.266C1093.44 809.211 1093.09 809.184 1092.7 809.184C1091.28 809.184 1090.32 809.789 1089.81 811V820H1087.64V807.32H1089.75L1089.79 808.785C1090.5 807.652 1091.5 807.086 1092.81 807.086C1093.23 807.086 1093.55 807.141 1093.77 807.25V809.266ZM1104.7 814.27H1107.07V816.039H1104.7V820H1102.52V816.039H1094.75V814.762L1102.39 802.938H1104.7V814.27ZM1097.21 814.27H1102.52V805.902L1102.27 806.371L1097.21 814.27ZM1117.34 812.5C1116.88 813.039 1116.34 813.473 1115.71 813.801C1115.08 814.129 1114.39 814.293 1113.64 814.293C1112.66 814.293 1111.8 814.051 1111.07 813.566C1110.34 813.082 1109.78 812.402 1109.38 811.527C1108.98 810.645 1108.78 809.672 1108.78 808.609C1108.78 807.469 1109 806.441 1109.43 805.527C1109.86 804.613 1110.48 803.914 1111.28 803.43C1112.07 802.945 1113 802.703 1114.07 802.703C1115.75 802.703 1117.08 803.336 1118.05 804.602C1119.03 805.859 1119.52 807.578 1119.52 809.758V810.391C1119.52 813.711 1118.86 816.137 1117.55 817.668C1116.23 819.191 1114.25 819.973 1111.61 820.012H1111.18V818.184H1111.64C1113.43 818.152 1114.8 817.688 1115.77 816.789C1116.73 815.883 1117.25 814.453 1117.34 812.5ZM1114 812.5C1114.72 812.5 1115.39 812.277 1116 811.832C1116.62 811.387 1117.07 810.836 1117.35 810.18V809.312C1117.35 807.891 1117.04 806.734 1116.42 805.844C1115.8 804.953 1115.02 804.508 1114.08 804.508C1113.12 804.508 1112.36 804.875 1111.78 805.609C1111.2 806.336 1110.91 807.297 1110.91 808.492C1110.91 809.656 1111.19 810.617 1111.75 811.375C1112.31 812.125 1113.06 812.5 1114 812.5Z"/><path fill="#000" d="M1093.77 885.266C1093.44 885.211 1093.09 885.184 1092.7 885.184C1091.28 885.184 1090.32 885.789 1089.81 887V896H1087.64V883.32H1089.75L1089.79 884.785C1090.5 883.652 1091.5 883.086 1092.81 883.086C1093.23 883.086 1093.55 883.141 1093.77 883.25V885.266ZM1096.55 887.445L1097.41 878.938H1106.16V880.941H1099.25L1098.74 885.594C1099.57 885.102 1100.52 884.855 1101.59 884.855C1103.14 884.855 1104.38 885.371 1105.29 886.402C1106.2 887.426 1106.66 888.812 1106.66 890.562C1106.66 892.32 1106.18 893.707 1105.23 894.723C1104.29 895.73 1102.96 896.234 1101.26 896.234C1099.75 896.234 1098.52 895.816 1097.57 894.98C1096.61 894.145 1096.07 892.988 1095.94 891.512H1097.99C1098.12 892.488 1098.47 893.227 1099.03 893.727C1099.59 894.219 1100.34 894.465 1101.26 894.465C1102.27 894.465 1103.05 894.121 1103.62 893.434C1104.2 892.746 1104.49 891.797 1104.49 890.586C1104.49 889.445 1104.18 888.531 1103.55 887.844C1102.94 887.148 1102.11 886.801 1101.08 886.801C1100.14 886.801 1099.39 887.008 1098.86 887.422L1098.28 887.891L1096.55 887.445ZM1119.73 888.723C1119.73 891.262 1119.29 893.148 1118.43 894.383C1117.56 895.617 1116.2 896.234 1114.36 896.234C1112.54 896.234 1111.19 895.633 1110.32 894.43C1109.44 893.219 1108.99 891.414 1108.96 889.016V886.121C1108.96 883.613 1109.39 881.75 1110.26 880.531C1111.12 879.312 1112.48 878.703 1114.34 878.703C1116.17 878.703 1117.52 879.293 1118.39 880.473C1119.26 881.645 1119.7 883.457 1119.73 885.91V888.723ZM1117.56 885.758C1117.56 883.922 1117.3 882.586 1116.79 881.75C1116.27 880.906 1115.45 880.484 1114.34 880.484C1113.23 880.484 1112.42 880.902 1111.91 881.738C1111.4 882.574 1111.14 883.859 1111.12 885.594V889.062C1111.12 890.906 1111.39 892.27 1111.92 893.152C1112.46 894.027 1113.27 894.465 1114.36 894.465C1115.43 894.465 1116.22 894.051 1116.74 893.223C1117.26 892.395 1117.54 891.09 1117.56 889.309V885.758Z"/></svg>