<svg xmlns="http://www.w3.org/2000/svg" width="1440" height="1024" fill="none" viewBox="0 0 1440 1024"><rect width="1440" height="1024" fill="#fff"/><rect width="1287" height="906" x="76.5" y="58.5" stroke="#000" stroke-width="3"/><rect width="236" height="34" x="602" y="43" fill="#fff"/><path fill="#000" d="M689.578 62.7617C689 63.5898 688.191 64.2109 687.152 64.625C686.121 65.0312 684.918 65.2344 683.543 65.2344C682.152 65.2344 680.918 64.9102 679.84 64.2617C678.762 63.6055 677.926 62.6758 677.332 61.4727C676.746 60.2695 676.445 58.875 676.43 57.2891V55.8008C676.43 53.2305 677.027 51.2383 678.223 49.8242C679.426 48.4102 681.113 47.7031 683.285 47.7031C685.066 47.7031 686.5 48.1602 687.586 49.0742C688.672 49.9805 689.336 51.2695 689.578 52.9414H687.328C686.906 50.6836 685.562 49.5547 683.297 49.5547C681.789 49.5547 680.645 50.0859 679.863 51.1484C679.09 52.2031 678.699 53.7344 678.691 55.7422V57.1367C678.691 59.0508 679.129 60.5742 680.004 61.707C680.879 62.832 682.062 63.3945 683.555 63.3945C684.398 63.3945 685.137 63.3008 685.77 63.1133C686.402 62.9258 686.926 62.6094 687.34 62.1641V58.332H683.391V56.5039H689.578V62.7617ZM698.262 65.2344C696.543 65.2344 695.145 64.6719 694.066 63.5469C692.988 62.4141 692.449 60.9023 692.449 59.0117V58.6133C692.449 57.3555 692.688 56.2344 693.164 55.25C693.648 54.2578 694.32 53.4844 695.18 52.9297C696.047 52.3672 696.984 52.0859 697.992 52.0859C699.641 52.0859 700.922 52.6289 701.836 53.7148C702.75 54.8008 703.207 56.3555 703.207 58.3789V59.2812H694.617C694.648 60.5312 695.012 61.543 695.707 62.3164C696.41 63.082 697.301 63.4648 698.379 63.4648C699.145 63.4648 699.793 63.3086 700.324 62.9961C700.855 62.6836 701.32 62.2695 701.719 61.7539L703.043 62.7852C701.98 64.418 700.387 65.2344 698.262 65.2344ZM697.992 53.8672C697.117 53.8672 696.383 54.1875 695.789 54.8281C695.195 55.4609 694.828 56.3516 694.688 57.5H701.039V57.3359C700.977 56.2344 700.68 55.3828 700.148 54.7812C699.617 54.1719 698.898 53.8672 697.992 53.8672ZM711.855 54.2656C711.527 54.2109 711.172 54.1836 710.789 54.1836C709.367 54.1836 708.402 54.7891 707.895 56V65H705.727V52.3203H707.836L707.871 53.7852C708.582 52.6523 709.59 52.0859 710.895 52.0859C711.316 52.0859 711.637 52.1406 711.855 52.25V54.2656ZM724.594 58.8008C724.594 60.7383 724.148 62.2969 723.258 63.4766C722.367 64.6484 721.172 65.2344 719.672 65.2344C718.07 65.2344 716.832 64.668 715.957 63.5352L715.852 65H713.859V47H716.027V53.7148C716.902 52.6289 718.109 52.0859 719.648 52.0859C721.188 52.0859 722.395 52.668 723.27 53.832C724.152 54.9961 724.594 56.5898 724.594 58.6133V58.8008ZM722.426 58.5547C722.426 57.0781 722.141 55.9375 721.57 55.1328C721 54.3281 720.18 53.9258 719.109 53.9258C717.68 53.9258 716.652 54.5898 716.027 55.918V61.4023C716.691 62.7305 717.727 63.3945 719.133 63.3945C720.172 63.3945 720.98 62.9922 721.559 62.1875C722.137 61.3828 722.426 60.1719 722.426 58.5547ZM735.164 65C735.039 64.75 734.938 64.3047 734.859 63.6641C733.852 64.7109 732.648 65.2344 731.25 65.2344C730 65.2344 728.973 64.8828 728.168 64.1797C727.371 63.4688 726.973 62.5703 726.973 61.4844C726.973 60.1641 727.473 59.1406 728.473 58.4141C729.48 57.6797 730.895 57.3125 732.715 57.3125H734.824V56.3164C734.824 55.5586 734.598 54.957 734.145 54.5117C733.691 54.0586 733.023 53.832 732.141 53.832C731.367 53.832 730.719 54.0273 730.195 54.418C729.672 54.8086 729.41 55.2812 729.41 55.8359H727.23C727.23 55.2031 727.453 54.5938 727.898 54.0078C728.352 53.4141 728.961 52.9453 729.727 52.6016C730.5 52.2578 731.348 52.0859 732.27 52.0859C733.73 52.0859 734.875 52.4531 735.703 53.1875C736.531 53.9141 736.961 54.918 736.992 56.1992V62.0352C736.992 63.1992 737.141 64.125 737.438 64.8125V65H735.164ZM731.566 63.3477C732.246 63.3477 732.891 63.1719 733.5 62.8203C734.109 62.4688 734.551 62.0117 734.824 61.4492V58.8477H733.125C730.469 58.8477 729.141 59.625 729.141 61.1797C729.141 61.8594 729.367 62.3906 729.82 62.7734C730.273 63.1562 730.855 63.3477 731.566 63.3477ZM742.441 52.3203L742.512 53.9141C743.48 52.6953 744.746 52.0859 746.309 52.0859C748.988 52.0859 750.34 53.5977 750.363 56.6211V65H748.195V56.6094C748.188 55.6953 747.977 55.0195 747.562 54.582C747.156 54.1445 746.52 53.9258 745.652 53.9258C744.949 53.9258 744.332 54.1133 743.801 54.4883C743.27 54.8633 742.855 55.3555 742.559 55.9648V65H740.391V52.3203H742.441ZM753.117 58.5547C753.117 56.5781 753.574 55.0078 754.488 53.8438C755.402 52.6719 756.613 52.0859 758.121 52.0859C759.668 52.0859 760.875 52.6328 761.742 53.7266L761.848 52.3203H763.828V64.6953C763.828 66.3359 763.34 67.6289 762.363 68.5742C761.395 69.5195 760.09 69.9922 758.449 69.9922C757.535 69.9922 756.641 69.7969 755.766 69.4062C754.891 69.0156 754.223 68.4805 753.762 67.8008L754.887 66.5C755.816 67.6484 756.953 68.2227 758.297 68.2227C759.352 68.2227 760.172 67.9258 760.758 67.332C761.352 66.7383 761.648 65.9023 761.648 64.8242V63.7344C760.781 64.7344 759.598 65.2344 758.098 65.2344C756.613 65.2344 755.41 64.6367 754.488 63.4414C753.574 62.2461 753.117 60.6172 753.117 58.5547ZM755.297 58.8008C755.297 60.2305 755.59 61.3555 756.176 62.1758C756.762 62.9883 757.582 63.3945 758.637 63.3945C760.004 63.3945 761.008 62.7734 761.648 61.5312V55.7422C760.984 54.5312 759.988 53.9258 758.66 53.9258C757.605 53.9258 756.781 54.3359 756.188 55.1562C755.594 55.9766 755.297 57.1914 755.297 58.8008Z"/><rect id="r1" width="280" height="86" x="108" y="121" fill="#C4C4C4"/><rect id="r2" width="280" height="86" x="108" y="207" fill="#C4C4C4"/><rect id="r3" width="280" height="86" x="108" y="293" fill="#C4C4C4"/><rect id="r4" width="280" height="86" x="108" y="293" fill="#C4C4C4"/><rect id="r5" width="280" height="86" x="108" y="379" fill="#C4C4C4"/><rect id="r6" width="280" height="86" x="108" y="465" fill="#C4C4C4"/><rect id="r7" width="280" height="86" x="108" y="551" fill="#C4C4C4"/><rect id="r8" width="280" height="86" x="108" y="637" fill="#C4C4C4"/><rect id="r9" width="280" height="86" x="108" y="723" fill="#C4C4C4"/><rect id="r10" width="280" height="86" x="108" y="809" fill="#C4C4C4"/><rect id="r11" width="280" height="86" x="424" y="121" fill="#C4C4C4"/><rect id="r12" width="280" height="86" x="424" y="207" fill="#C4C4C4"/><rect id="r13" width="280" height="86" x="424" y="293" fill="#C4C4C4"/><rect id="r14" width="280" height="86" x="424" y="293" fill="#C4C4C4"/><rect id="r15" width="280" height="86" x="424" y="379" fill="#C4C4C4"/><rect id="r16" width="280" height="86" x="424" y="465" fill="#C4C4C4"/><rect id="r17" width="280" height="86" x="424" y="551" fill="#C4C4C4"/><rect id="r18" width="280" height="86" x="424" y="637" fill="#C4C4C4"/><rect id="r19" width="280" height="86" x="424" y="723" fill="#C4C4C4"/><rect id="r20" width="280" height="86" x="424" y="809" fill="#C4C4C4"/><rect id="r21" width="280" height="86" x="736" y="121" fill="#C4C4C4"/><rect id="r22" width="280" height="86" x="736" y="207" fill="#C4C4C4"/><rect id="r23" width="280" height="86" x="736" y="293" fill="#C4C4C4"/><rect id="r24" width="280" height="86" x="736" y="293" fill="#C4C4C4"/><rect id="r25" width="280" height="86" x="736" y="379" fill="#C4C4C4"/><rect id="r26" width="280" height="86" x="736" y="465" fill="#C4C4C4"/><rect id="r27" width="280" height="86" x="736" y="551" fill="#C4C4C4"/><rect id="r28" width="280" height="86" x="736" y="637" fill="#C4C4C4"/><rect id="r29" width="280" height="86" x="736" y="723" fill="#C4C4C4"/><rect id="r30" width="280" height="86" x="736" y="809" fill="#C4C4C4"/><rect id="r31" width="280" height="86" x="1052" y="121" fill="#C4C4C4"/><rect id="r32" width="280" height="86" x="1052" y="293" fill="#C4C4C4"/><rect id="r33" width="280" height="86" x="1052" y="379" fill="#C4C4C4"/><rect id="r34" width="280" height="86" x="1052" y="465" fill="#C4C4C4"/><rect id="r35" width="280" height="86" x="1052" y="551" fill="#C4C4C4"/><rect id="r36" width="280" height="86" x="1052" y="637" fill="#C4C4C4"/><rect id="r37" width="280" height="86" x="1052" y="723" fill="#C4C4C4"/><rect id="r38" width="280" height="86" x="1052" y="809" fill="#C4C4C4"/><rect id="r39" width="280" height="86" x="1052" y="207" fill="#C4C4C4"/><rect id="r40" width="280" height="86" x="1052" y="293" fill="#C4C4C4"/></svg>