<svg xmlns="http://www.w3.org/2000/svg" width="1440" height="1024" fill="none" viewBox="0 0 1440 1024"><rect width="1440" height="1024" fill="#fff"/><rect width="1287" height="906" x="76.5" y="58.5" stroke="#000" stroke-width="3"/><rect width="236" height="34" x="602" y="43" fill="#fff"/><path fill="#000" d="M689.578 62.7617C689 63.5898 688.191 64.2109 687.152 64.625C686.121 65.0312 684.918 65.2344 683.543 65.2344C682.152 65.2344 680.918 64.9102 679.84 64.2617C678.762 63.6055 677.926 62.6758 677.332 61.4727C676.746 60.2695 676.445 58.875 676.43 57.2891V55.8008C676.43 53.2305 677.027 51.2383 678.223 49.8242C679.426 48.4102 681.113 47.7031 683.285 47.7031C685.066 47.7031 686.5 48.1602 687.586 49.0742C688.672 49.9805 689.336 51.2695 689.578 52.9414H687.328C686.906 50.6836 685.562 49.5547 683.297 49.5547C681.789 49.5547 680.645 50.0859 679.863 51.1484C679.09 52.2031 678.699 53.7344 678.691 55.7422V57.1367C678.691 59.0508 679.129 60.5742 680.004 61.707C680.879 62.832 682.062 63.3945 683.555 63.3945C684.398 63.3945 685.137 63.3008 685.77 63.1133C686.402 62.9258 686.926 62.6094 687.34 62.1641V58.332H683.391V56.5039H689.578V62.7617ZM698.262 65.2344C696.543 65.2344 695.145 64.6719 694.066 63.5469C692.988 62.4141 692.449 60.9023 692.449 59.0117V58.6133C692.449 57.3555 692.688 56.2344 693.164 55.25C693.648 54.2578 694.32 53.4844 695.18 52.9297C696.047 52.3672 696.984 52.0859 697.992 52.0859C699.641 52.0859 700.922 52.6289 701.836 53.7148C702.75 54.8008 703.207 56.3555 703.207 58.3789V59.2812H694.617C694.648 60.5312 695.012 61.543 695.707 62.3164C696.41 63.082 697.301 63.4648 698.379 63.4648C699.145 63.4648 699.793 63.3086 700.324 62.9961C700.855 62.6836 701.32 62.2695 701.719 61.7539L703.043 62.7852C701.98 64.418 700.387 65.2344 698.262 65.2344ZM697.992 53.8672C697.117 53.8672 696.383 54.1875 695.789 54.8281C695.195 55.4609 694.828 56.3516 694.688 57.5H701.039V57.3359C700.977 56.2344 700.68 55.3828 700.148 54.7812C699.617 54.1719 698.898 53.8672 697.992 53.8672ZM711.855 54.2656C711.527 54.2109 711.172 54.1836 710.789 54.1836C709.367 54.1836 708.402 54.7891 707.895 56V65H705.727V52.3203H707.836L707.871 53.7852C708.582 52.6523 709.59 52.0859 710.895 52.0859C711.316 52.0859 711.637 52.1406 711.855 52.25V54.2656ZM724.594 58.8008C724.594 60.7383 724.148 62.2969 723.258 63.4766C722.367 64.6484 721.172 65.2344 719.672 65.2344C718.07 65.2344 716.832 64.668 715.957 63.5352L715.852 65H713.859V47H716.027V53.7148C716.902 52.6289 718.109 52.0859 719.648 52.0859C721.188 52.0859 722.395 52.668 723.27 53.832C724.152 54.9961 724.594 56.5898 724.594 58.6133V58.8008ZM722.426 58.5547C722.426 57.0781 722.141 55.9375 721.57 55.1328C721 54.3281 720.18 53.9258 719.109 53.9258C717.68 53.9258 716.652 54.5898 716.027 55.918V61.4023C716.691 62.7305 717.727 63.3945 719.133 63.3945C720.172 63.3945 720.98 62.9922 721.559 62.1875C722.137 61.3828 722.426 60.1719 722.426 58.5547ZM735.164 65C735.039 64.75 734.938 64.3047 734.859 63.6641C733.852 64.7109 732.648 65.2344 731.25 65.2344C730 65.2344 728.973 64.8828 728.168 64.1797C727.371 63.4688 726.973 62.5703 726.973 61.4844C726.973 60.1641 727.473 59.1406 728.473 58.4141C729.48 57.6797 730.895 57.3125 732.715 57.3125H734.824V56.3164C734.824 55.5586 734.598 54.957 734.145 54.5117C733.691 54.0586 733.023 53.832 732.141 53.832C731.367 53.832 730.719 54.0273 730.195 54.418C729.672 54.8086 729.41 55.2812 729.41 55.8359H727.23C727.23 55.2031 727.453 54.5938 727.898 54.0078C728.352 53.4141 728.961 52.9453 729.727 52.6016C730.5 52.2578 731.348 52.0859 732.27 52.0859C733.73 52.0859 734.875 52.4531 735.703 53.1875C736.531 53.9141 736.961 54.918 736.992 56.1992V62.0352C736.992 63.1992 737.141 64.125 737.438 64.8125V65H735.164ZM731.566 63.3477C732.246 63.3477 732.891 63.1719 733.5 62.8203C734.109 62.4688 734.551 62.0117 734.824 61.4492V58.8477H733.125C730.469 58.8477 729.141 59.625 729.141 61.1797C729.141 61.8594 729.367 62.3906 729.82 62.7734C730.273 63.1562 730.855 63.3477 731.566 63.3477ZM742.441 52.3203L742.512 53.9141C743.48 52.6953 744.746 52.0859 746.309 52.0859C748.988 52.0859 750.34 53.5977 750.363 56.6211V65H748.195V56.6094C748.188 55.6953 747.977 55.0195 747.562 54.582C747.156 54.1445 746.52 53.9258 745.652 53.9258C744.949 53.9258 744.332 54.1133 743.801 54.4883C743.27 54.8633 742.855 55.3555 742.559 55.9648V65H740.391V52.3203H742.441ZM753.117 58.5547C753.117 56.5781 753.574 55.0078 754.488 53.8438C755.402 52.6719 756.613 52.0859 758.121 52.0859C759.668 52.0859 760.875 52.6328 761.742 53.7266L761.848 52.3203H763.828V64.6953C763.828 66.3359 763.34 67.6289 762.363 68.5742C761.395 69.5195 760.09 69.9922 758.449 69.9922C757.535 69.9922 756.641 69.7969 755.766 69.4062C754.891 69.0156 754.223 68.4805 753.762 67.8008L754.887 66.5C755.816 67.6484 756.953 68.2227 758.297 68.2227C759.352 68.2227 760.172 67.9258 760.758 67.332C761.352 66.7383 761.648 65.9023 761.648 64.8242V63.7344C760.781 64.7344 759.598 65.2344 758.098 65.2344C756.613 65.2344 755.41 64.6367 754.488 63.4414C753.574 62.2461 753.117 60.6172 753.117 58.5547ZM755.297 58.8008C755.297 60.2305 755.59 61.3555 756.176 62.1758C756.762 62.9883 757.582 63.3945 758.637 63.3945C760.004 63.3945 761.008 62.7734 761.648 61.5312V55.7422C760.984 54.5312 759.988 53.9258 758.66 53.9258C757.605 53.9258 756.781 54.3359 756.188 55.1562C755.594 55.9766 755.297 57.1914 755.297 58.8008Z"/><rect width="288" height="777" x="102" y="157" fill="#000"/><rect width="288" height="777" x="418" y="157" fill="#000"/><rect width="288" height="777" x="734" y="157" fill="#000"/><rect width="288" height="777" x="1050" y="157" fill="#000"/><path fill="#000" d="M119.98 127V109.938H125.559C127.41 109.938 128.801 110.32 129.73 111.086C130.668 111.852 131.137 112.984 131.137 114.484C131.137 115.281 130.91 115.988 130.457 116.605C130.004 117.215 129.387 117.688 128.605 118.023C129.527 118.281 130.254 118.773 130.785 119.5C131.324 120.219 131.594 121.078 131.594 122.078C131.594 123.609 131.098 124.812 130.105 125.688C129.113 126.562 127.711 127 125.898 127H119.98ZM122.23 119.02V125.16H125.945C126.992 125.16 127.816 124.891 128.418 124.352C129.027 123.805 129.332 123.055 129.332 122.102C129.332 120.047 128.215 119.02 125.98 119.02H122.23ZM122.23 117.215H125.629C126.613 117.215 127.398 116.969 127.984 116.477C128.578 115.984 128.875 115.316 128.875 114.473C128.875 113.535 128.602 112.855 128.055 112.434C127.508 112.004 126.676 111.789 125.559 111.789H122.23V117.215ZM142.422 127C142.297 126.75 142.195 126.305 142.117 125.664C141.109 126.711 139.906 127.234 138.508 127.234C137.258 127.234 136.23 126.883 135.426 126.18C134.629 125.469 134.23 124.57 134.23 123.484C134.23 122.164 134.73 121.141 135.73 120.414C136.738 119.68 138.152 119.312 139.973 119.312H142.082V118.316C142.082 117.559 141.855 116.957 141.402 116.512C140.949 116.059 140.281 115.832 139.398 115.832C138.625 115.832 137.977 116.027 137.453 116.418C136.93 116.809 136.668 117.281 136.668 117.836H134.488C134.488 117.203 134.711 116.594 135.156 116.008C135.609 115.414 136.219 114.945 136.984 114.602C137.758 114.258 138.605 114.086 139.527 114.086C140.988 114.086 142.133 114.453 142.961 115.188C143.789 115.914 144.219 116.918 144.25 118.199V124.035C144.25 125.199 144.398 126.125 144.695 126.812V127H142.422ZM138.824 125.348C139.504 125.348 140.148 125.172 140.758 124.82C141.367 124.469 141.809 124.012 142.082 123.449V120.848H140.383C137.727 120.848 136.398 121.625 136.398 123.18C136.398 123.859 136.625 124.391 137.078 124.773C137.531 125.156 138.113 125.348 138.824 125.348ZM155.031 123.637C155.031 123.051 154.809 122.598 154.363 122.277C153.926 121.949 153.156 121.668 152.055 121.434C150.961 121.199 150.09 120.918 149.441 120.59C148.801 120.262 148.324 119.871 148.012 119.418C147.707 118.965 147.555 118.426 147.555 117.801C147.555 116.762 147.992 115.883 148.867 115.164C149.75 114.445 150.875 114.086 152.242 114.086C153.68 114.086 154.844 114.457 155.734 115.199C156.633 115.941 157.082 116.891 157.082 118.047H154.902C154.902 117.453 154.648 116.941 154.141 116.512C153.641 116.082 153.008 115.867 152.242 115.867C151.453 115.867 150.836 116.039 150.391 116.383C149.945 116.727 149.723 117.176 149.723 117.73C149.723 118.254 149.93 118.648 150.344 118.914C150.758 119.18 151.504 119.434 152.582 119.676C153.668 119.918 154.547 120.207 155.219 120.543C155.891 120.879 156.387 121.285 156.707 121.762C157.035 122.23 157.199 122.805 157.199 123.484C157.199 124.617 156.746 125.527 155.84 126.215C154.934 126.895 153.758 127.234 152.312 127.234C151.297 127.234 150.398 127.055 149.617 126.695C148.836 126.336 148.223 125.836 147.777 125.195C147.34 124.547 147.121 123.848 147.121 123.098H149.289C149.328 123.824 149.617 124.402 150.156 124.832C150.703 125.254 151.422 125.465 152.312 125.465C153.133 125.465 153.789 125.301 154.281 124.973C154.781 124.637 155.031 124.191 155.031 123.637ZM162.379 127H160.211V114.32H162.379V127ZM160.035 110.957C160.035 110.605 160.141 110.309 160.352 110.066C160.57 109.824 160.891 109.703 161.312 109.703C161.734 109.703 162.055 109.824 162.273 110.066C162.492 110.309 162.602 110.605 162.602 110.957C162.602 111.309 162.492 111.602 162.273 111.836C162.055 112.07 161.734 112.188 161.312 112.188C160.891 112.188 160.57 112.07 160.352 111.836C160.141 111.602 160.035 111.309 160.035 110.957ZM173.242 123.637C173.242 123.051 173.02 122.598 172.574 122.277C172.137 121.949 171.367 121.668 170.266 121.434C169.172 121.199 168.301 120.918 167.652 120.59C167.012 120.262 166.535 119.871 166.223 119.418C165.918 118.965 165.766 118.426 165.766 117.801C165.766 116.762 166.203 115.883 167.078 115.164C167.961 114.445 169.086 114.086 170.453 114.086C171.891 114.086 173.055 114.457 173.945 115.199C174.844 115.941 175.293 116.891 175.293 118.047H173.113C173.113 117.453 172.859 116.941 172.352 116.512C171.852 116.082 171.219 115.867 170.453 115.867C169.664 115.867 169.047 116.039 168.602 116.383C168.156 116.727 167.934 117.176 167.934 117.73C167.934 118.254 168.141 118.648 168.555 118.914C168.969 119.18 169.715 119.434 170.793 119.676C171.879 119.918 172.758 120.207 173.43 120.543C174.102 120.879 174.598 121.285 174.918 121.762C175.246 122.23 175.41 122.805 175.41 123.484C175.41 124.617 174.957 125.527 174.051 126.215C173.145 126.895 171.969 127.234 170.523 127.234C169.508 127.234 168.609 127.055 167.828 126.695C167.047 126.336 166.434 125.836 165.988 125.195C165.551 124.547 165.332 123.848 165.332 123.098H167.5C167.539 123.824 167.828 124.402 168.367 124.832C168.914 125.254 169.633 125.465 170.523 125.465C171.344 125.465 172 125.301 172.492 124.973C172.992 124.637 173.242 124.191 173.242 123.637ZM191.09 127H188.91V112.551L184.539 114.156V112.188L190.75 109.855H191.09V127Z"/><path fill="#000" d="M435.98 127V109.938H441.559C443.41 109.938 444.801 110.32 445.73 111.086C446.668 111.852 447.137 112.984 447.137 114.484C447.137 115.281 446.91 115.988 446.457 116.605C446.004 117.215 445.387 117.688 444.605 118.023C445.527 118.281 446.254 118.773 446.785 119.5C447.324 120.219 447.594 121.078 447.594 122.078C447.594 123.609 447.098 124.812 446.105 125.688C445.113 126.562 443.711 127 441.898 127H435.98ZM438.23 119.02V125.16H441.945C442.992 125.16 443.816 124.891 444.418 124.352C445.027 123.805 445.332 123.055 445.332 122.102C445.332 120.047 444.215 119.02 441.98 119.02H438.23ZM438.23 117.215H441.629C442.613 117.215 443.398 116.969 443.984 116.477C444.578 115.984 444.875 115.316 444.875 114.473C444.875 113.535 444.602 112.855 444.055 112.434C443.508 112.004 442.676 111.789 441.559 111.789H438.23V117.215ZM458.422 127C458.297 126.75 458.195 126.305 458.117 125.664C457.109 126.711 455.906 127.234 454.508 127.234C453.258 127.234 452.23 126.883 451.426 126.18C450.629 125.469 450.23 124.57 450.23 123.484C450.23 122.164 450.73 121.141 451.73 120.414C452.738 119.68 454.152 119.312 455.973 119.312H458.082V118.316C458.082 117.559 457.855 116.957 457.402 116.512C456.949 116.059 456.281 115.832 455.398 115.832C454.625 115.832 453.977 116.027 453.453 116.418C452.93 116.809 452.668 117.281 452.668 117.836H450.488C450.488 117.203 450.711 116.594 451.156 116.008C451.609 115.414 452.219 114.945 452.984 114.602C453.758 114.258 454.605 114.086 455.527 114.086C456.988 114.086 458.133 114.453 458.961 115.188C459.789 115.914 460.219 116.918 460.25 118.199V124.035C460.25 125.199 460.398 126.125 460.695 126.812V127H458.422ZM454.824 125.348C455.504 125.348 456.148 125.172 456.758 124.82C457.367 124.469 457.809 124.012 458.082 123.449V120.848H456.383C453.727 120.848 452.398 121.625 452.398 123.18C452.398 123.859 452.625 124.391 453.078 124.773C453.531 125.156 454.113 125.348 454.824 125.348ZM471.031 123.637C471.031 123.051 470.809 122.598 470.363 122.277C469.926 121.949 469.156 121.668 468.055 121.434C466.961 121.199 466.09 120.918 465.441 120.59C464.801 120.262 464.324 119.871 464.012 119.418C463.707 118.965 463.555 118.426 463.555 117.801C463.555 116.762 463.992 115.883 464.867 115.164C465.75 114.445 466.875 114.086 468.242 114.086C469.68 114.086 470.844 114.457 471.734 115.199C472.633 115.941 473.082 116.891 473.082 118.047H470.902C470.902 117.453 470.648 116.941 470.141 116.512C469.641 116.082 469.008 115.867 468.242 115.867C467.453 115.867 466.836 116.039 466.391 116.383C465.945 116.727 465.723 117.176 465.723 117.73C465.723 118.254 465.93 118.648 466.344 118.914C466.758 119.18 467.504 119.434 468.582 119.676C469.668 119.918 470.547 120.207 471.219 120.543C471.891 120.879 472.387 121.285 472.707 121.762C473.035 122.23 473.199 122.805 473.199 123.484C473.199 124.617 472.746 125.527 471.84 126.215C470.934 126.895 469.758 127.234 468.312 127.234C467.297 127.234 466.398 127.055 465.617 126.695C464.836 126.336 464.223 125.836 463.777 125.195C463.34 124.547 463.121 123.848 463.121 123.098H465.289C465.328 123.824 465.617 124.402 466.156 124.832C466.703 125.254 467.422 125.465 468.312 125.465C469.133 125.465 469.789 125.301 470.281 124.973C470.781 124.637 471.031 124.191 471.031 123.637ZM478.379 127H476.211V114.32H478.379V127ZM476.035 110.957C476.035 110.605 476.141 110.309 476.352 110.066C476.57 109.824 476.891 109.703 477.312 109.703C477.734 109.703 478.055 109.824 478.273 110.066C478.492 110.309 478.602 110.605 478.602 110.957C478.602 111.309 478.492 111.602 478.273 111.836C478.055 112.07 477.734 112.188 477.312 112.188C476.891 112.188 476.57 112.07 476.352 111.836C476.141 111.602 476.035 111.309 476.035 110.957ZM489.242 123.637C489.242 123.051 489.02 122.598 488.574 122.277C488.137 121.949 487.367 121.668 486.266 121.434C485.172 121.199 484.301 120.918 483.652 120.59C483.012 120.262 482.535 119.871 482.223 119.418C481.918 118.965 481.766 118.426 481.766 117.801C481.766 116.762 482.203 115.883 483.078 115.164C483.961 114.445 485.086 114.086 486.453 114.086C487.891 114.086 489.055 114.457 489.945 115.199C490.844 115.941 491.293 116.891 491.293 118.047H489.113C489.113 117.453 488.859 116.941 488.352 116.512C487.852 116.082 487.219 115.867 486.453 115.867C485.664 115.867 485.047 116.039 484.602 116.383C484.156 116.727 483.934 117.176 483.934 117.73C483.934 118.254 484.141 118.648 484.555 118.914C484.969 119.18 485.715 119.434 486.793 119.676C487.879 119.918 488.758 120.207 489.43 120.543C490.102 120.879 490.598 121.285 490.918 121.762C491.246 122.23 491.41 122.805 491.41 123.484C491.41 124.617 490.957 125.527 490.051 126.215C489.145 126.895 487.969 127.234 486.523 127.234C485.508 127.234 484.609 127.055 483.828 126.695C483.047 126.336 482.434 125.836 481.988 125.195C481.551 124.547 481.332 123.848 481.332 123.098H483.5C483.539 123.824 483.828 124.402 484.367 124.832C484.914 125.254 485.633 125.465 486.523 125.465C487.344 125.465 488 125.301 488.492 124.973C488.992 124.637 489.242 124.191 489.242 123.637ZM511.145 127H499.965V125.441L505.871 118.879C506.746 117.887 507.348 117.082 507.676 116.465C508.012 115.84 508.18 115.195 508.18 114.531C508.18 113.641 507.91 112.91 507.371 112.34C506.832 111.77 506.113 111.484 505.215 111.484C504.137 111.484 503.297 111.793 502.695 112.41C502.102 113.02 501.805 113.871 501.805 114.965H499.637C499.637 113.395 500.141 112.125 501.148 111.156C502.164 110.188 503.52 109.703 505.215 109.703C506.801 109.703 508.055 110.121 508.977 110.957C509.898 111.785 510.359 112.891 510.359 114.273C510.359 115.953 509.289 117.953 507.148 120.273L502.578 125.23H511.145V127Z"/><path fill="#000" d="M761.98 127V109.938H767.559C769.41 109.938 770.801 110.32 771.73 111.086C772.668 111.852 773.137 112.984 773.137 114.484C773.137 115.281 772.91 115.988 772.457 116.605C772.004 117.215 771.387 117.688 770.605 118.023C771.527 118.281 772.254 118.773 772.785 119.5C773.324 120.219 773.594 121.078 773.594 122.078C773.594 123.609 773.098 124.812 772.105 125.688C771.113 126.562 769.711 127 767.898 127H761.98ZM764.23 119.02V125.16H767.945C768.992 125.16 769.816 124.891 770.418 124.352C771.027 123.805 771.332 123.055 771.332 122.102C771.332 120.047 770.215 119.02 767.98 119.02H764.23ZM764.23 117.215H767.629C768.613 117.215 769.398 116.969 769.984 116.477C770.578 115.984 770.875 115.316 770.875 114.473C770.875 113.535 770.602 112.855 770.055 112.434C769.508 112.004 768.676 111.789 767.559 111.789H764.23V117.215ZM784.422 127C784.297 126.75 784.195 126.305 784.117 125.664C783.109 126.711 781.906 127.234 780.508 127.234C779.258 127.234 778.23 126.883 777.426 126.18C776.629 125.469 776.23 124.57 776.23 123.484C776.23 122.164 776.73 121.141 777.73 120.414C778.738 119.68 780.152 119.312 781.973 119.312H784.082V118.316C784.082 117.559 783.855 116.957 783.402 116.512C782.949 116.059 782.281 115.832 781.398 115.832C780.625 115.832 779.977 116.027 779.453 116.418C778.93 116.809 778.668 117.281 778.668 117.836H776.488C776.488 117.203 776.711 116.594 777.156 116.008C777.609 115.414 778.219 114.945 778.984 114.602C779.758 114.258 780.605 114.086 781.527 114.086C782.988 114.086 784.133 114.453 784.961 115.188C785.789 115.914 786.219 116.918 786.25 118.199V124.035C786.25 125.199 786.398 126.125 786.695 126.812V127H784.422ZM780.824 125.348C781.504 125.348 782.148 125.172 782.758 124.82C783.367 124.469 783.809 124.012 784.082 123.449V120.848H782.383C779.727 120.848 778.398 121.625 778.398 123.18C778.398 123.859 778.625 124.391 779.078 124.773C779.531 125.156 780.113 125.348 780.824 125.348ZM797.031 123.637C797.031 123.051 796.809 122.598 796.363 122.277C795.926 121.949 795.156 121.668 794.055 121.434C792.961 121.199 792.09 120.918 791.441 120.59C790.801 120.262 790.324 119.871 790.012 119.418C789.707 118.965 789.555 118.426 789.555 117.801C789.555 116.762 789.992 115.883 790.867 115.164C791.75 114.445 792.875 114.086 794.242 114.086C795.68 114.086 796.844 114.457 797.734 115.199C798.633 115.941 799.082 116.891 799.082 118.047H796.902C796.902 117.453 796.648 116.941 796.141 116.512C795.641 116.082 795.008 115.867 794.242 115.867C793.453 115.867 792.836 116.039 792.391 116.383C791.945 116.727 791.723 117.176 791.723 117.73C791.723 118.254 791.93 118.648 792.344 118.914C792.758 119.18 793.504 119.434 794.582 119.676C795.668 119.918 796.547 120.207 797.219 120.543C797.891 120.879 798.387 121.285 798.707 121.762C799.035 122.23 799.199 122.805 799.199 123.484C799.199 124.617 798.746 125.527 797.84 126.215C796.934 126.895 795.758 127.234 794.312 127.234C793.297 127.234 792.398 127.055 791.617 126.695C790.836 126.336 790.223 125.836 789.777 125.195C789.34 124.547 789.121 123.848 789.121 123.098H791.289C791.328 123.824 791.617 124.402 792.156 124.832C792.703 125.254 793.422 125.465 794.312 125.465C795.133 125.465 795.789 125.301 796.281 124.973C796.781 124.637 797.031 124.191 797.031 123.637ZM804.379 127H802.211V114.32H804.379V127ZM802.035 110.957C802.035 110.605 802.141 110.309 802.352 110.066C802.57 109.824 802.891 109.703 803.312 109.703C803.734 109.703 804.055 109.824 804.273 110.066C804.492 110.309 804.602 110.605 804.602 110.957C804.602 111.309 804.492 111.602 804.273 111.836C804.055 112.07 803.734 112.188 803.312 112.188C802.891 112.188 802.57 112.07 802.352 111.836C802.141 111.602 802.035 111.309 802.035 110.957ZM815.242 123.637C815.242 123.051 815.02 122.598 814.574 122.277C814.137 121.949 813.367 121.668 812.266 121.434C811.172 121.199 810.301 120.918 809.652 120.59C809.012 120.262 808.535 119.871 808.223 119.418C807.918 118.965 807.766 118.426 807.766 117.801C807.766 116.762 808.203 115.883 809.078 115.164C809.961 114.445 811.086 114.086 812.453 114.086C813.891 114.086 815.055 114.457 815.945 115.199C816.844 115.941 817.293 116.891 817.293 118.047H815.113C815.113 117.453 814.859 116.941 814.352 116.512C813.852 116.082 813.219 115.867 812.453 115.867C811.664 115.867 811.047 116.039 810.602 116.383C810.156 116.727 809.934 117.176 809.934 117.73C809.934 118.254 810.141 118.648 810.555 118.914C810.969 119.18 811.715 119.434 812.793 119.676C813.879 119.918 814.758 120.207 815.43 120.543C816.102 120.879 816.598 121.285 816.918 121.762C817.246 122.23 817.41 122.805 817.41 123.484C817.41 124.617 816.957 125.527 816.051 126.215C815.145 126.895 813.969 127.234 812.523 127.234C811.508 127.234 810.609 127.055 809.828 126.695C809.047 126.336 808.434 125.836 807.988 125.195C807.551 124.547 807.332 123.848 807.332 123.098H809.5C809.539 123.824 809.828 124.402 810.367 124.832C810.914 125.254 811.633 125.465 812.523 125.465C813.344 125.465 814 125.301 814.492 124.973C814.992 124.637 815.242 124.191 815.242 123.637ZM829.117 117.414H830.746C831.77 117.398 832.574 117.129 833.16 116.605C833.746 116.082 834.039 115.375 834.039 114.484C834.039 112.484 833.043 111.484 831.051 111.484C830.113 111.484 829.363 111.754 828.801 112.293C828.246 112.824 827.969 113.531 827.969 114.414H825.801C825.801 113.062 826.293 111.941 827.277 111.051C828.27 110.152 829.527 109.703 831.051 109.703C832.66 109.703 833.922 110.129 834.836 110.98C835.75 111.832 836.207 113.016 836.207 114.531C836.207 115.273 835.965 115.992 835.48 116.688C835.004 117.383 834.352 117.902 833.523 118.246C834.461 118.543 835.184 119.035 835.691 119.723C836.207 120.41 836.465 121.25 836.465 122.242C836.465 123.773 835.965 124.988 834.965 125.887C833.965 126.785 832.664 127.234 831.062 127.234C829.461 127.234 828.156 126.801 827.148 125.934C826.148 125.066 825.648 123.922 825.648 122.5H827.828C827.828 123.398 828.121 124.117 828.707 124.656C829.293 125.195 830.078 125.465 831.062 125.465C832.109 125.465 832.91 125.191 833.465 124.645C834.02 124.098 834.297 123.312 834.297 122.289C834.297 121.297 833.992 120.535 833.383 120.004C832.773 119.473 831.895 119.199 830.746 119.184H829.117V117.414Z"/><path fill="#000" d="M1087.98 127V109.938H1093.56C1095.41 109.938 1096.8 110.32 1097.73 111.086C1098.67 111.852 1099.14 112.984 1099.14 114.484C1099.14 115.281 1098.91 115.988 1098.46 116.605C1098 117.215 1097.39 117.688 1096.61 118.023C1097.53 118.281 1098.25 118.773 1098.79 119.5C1099.32 120.219 1099.59 121.078 1099.59 122.078C1099.59 123.609 1099.1 124.812 1098.11 125.688C1097.11 126.562 1095.71 127 1093.9 127H1087.98ZM1090.23 119.02V125.16H1093.95C1094.99 125.16 1095.82 124.891 1096.42 124.352C1097.03 123.805 1097.33 123.055 1097.33 122.102C1097.33 120.047 1096.21 119.02 1093.98 119.02H1090.23ZM1090.23 117.215H1093.63C1094.61 117.215 1095.4 116.969 1095.98 116.477C1096.58 115.984 1096.88 115.316 1096.88 114.473C1096.88 113.535 1096.6 112.855 1096.05 112.434C1095.51 112.004 1094.68 111.789 1093.56 111.789H1090.23V117.215ZM1110.42 127C1110.3 126.75 1110.2 126.305 1110.12 125.664C1109.11 126.711 1107.91 127.234 1106.51 127.234C1105.26 127.234 1104.23 126.883 1103.43 126.18C1102.63 125.469 1102.23 124.57 1102.23 123.484C1102.23 122.164 1102.73 121.141 1103.73 120.414C1104.74 119.68 1106.15 119.312 1107.97 119.312H1110.08V118.316C1110.08 117.559 1109.86 116.957 1109.4 116.512C1108.95 116.059 1108.28 115.832 1107.4 115.832C1106.62 115.832 1105.98 116.027 1105.45 116.418C1104.93 116.809 1104.67 117.281 1104.67 117.836H1102.49C1102.49 117.203 1102.71 116.594 1103.16 116.008C1103.61 115.414 1104.22 114.945 1104.98 114.602C1105.76 114.258 1106.61 114.086 1107.53 114.086C1108.99 114.086 1110.13 114.453 1110.96 115.188C1111.79 115.914 1112.22 116.918 1112.25 118.199V124.035C1112.25 125.199 1112.4 126.125 1112.7 126.812V127H1110.42ZM1106.82 125.348C1107.5 125.348 1108.15 125.172 1108.76 124.82C1109.37 124.469 1109.81 124.012 1110.08 123.449V120.848H1108.38C1105.73 120.848 1104.4 121.625 1104.4 123.18C1104.4 123.859 1104.62 124.391 1105.08 124.773C1105.53 125.156 1106.11 125.348 1106.82 125.348ZM1123.03 123.637C1123.03 123.051 1122.81 122.598 1122.36 122.277C1121.93 121.949 1121.16 121.668 1120.05 121.434C1118.96 121.199 1118.09 120.918 1117.44 120.59C1116.8 120.262 1116.32 119.871 1116.01 119.418C1115.71 118.965 1115.55 118.426 1115.55 117.801C1115.55 116.762 1115.99 115.883 1116.87 115.164C1117.75 114.445 1118.88 114.086 1120.24 114.086C1121.68 114.086 1122.84 114.457 1123.73 115.199C1124.63 115.941 1125.08 116.891 1125.08 118.047H1122.9C1122.9 117.453 1122.65 116.941 1122.14 116.512C1121.64 116.082 1121.01 115.867 1120.24 115.867C1119.45 115.867 1118.84 116.039 1118.39 116.383C1117.95 116.727 1117.72 117.176 1117.72 117.73C1117.72 118.254 1117.93 118.648 1118.34 118.914C1118.76 119.18 1119.5 119.434 1120.58 119.676C1121.67 119.918 1122.55 120.207 1123.22 120.543C1123.89 120.879 1124.39 121.285 1124.71 121.762C1125.04 122.23 1125.2 122.805 1125.2 123.484C1125.2 124.617 1124.75 125.527 1123.84 126.215C1122.93 126.895 1121.76 127.234 1120.31 127.234C1119.3 127.234 1118.4 127.055 1117.62 126.695C1116.84 126.336 1116.22 125.836 1115.78 125.195C1115.34 124.547 1115.12 123.848 1115.12 123.098H1117.29C1117.33 123.824 1117.62 124.402 1118.16 124.832C1118.7 125.254 1119.42 125.465 1120.31 125.465C1121.13 125.465 1121.79 125.301 1122.28 124.973C1122.78 124.637 1123.03 124.191 1123.03 123.637ZM1130.38 127H1128.21V114.32H1130.38V127ZM1128.04 110.957C1128.04 110.605 1128.14 110.309 1128.35 110.066C1128.57 109.824 1128.89 109.703 1129.31 109.703C1129.73 109.703 1130.05 109.824 1130.27 110.066C1130.49 110.309 1130.6 110.605 1130.6 110.957C1130.6 111.309 1130.49 111.602 1130.27 111.836C1130.05 112.07 1129.73 112.188 1129.31 112.188C1128.89 112.188 1128.57 112.07 1128.35 111.836C1128.14 111.602 1128.04 111.309 1128.04 110.957ZM1141.24 123.637C1141.24 123.051 1141.02 122.598 1140.57 122.277C1140.14 121.949 1139.37 121.668 1138.27 121.434C1137.17 121.199 1136.3 120.918 1135.65 120.59C1135.01 120.262 1134.54 119.871 1134.22 119.418C1133.92 118.965 1133.77 118.426 1133.77 117.801C1133.77 116.762 1134.2 115.883 1135.08 115.164C1135.96 114.445 1137.09 114.086 1138.45 114.086C1139.89 114.086 1141.05 114.457 1141.95 115.199C1142.84 115.941 1143.29 116.891 1143.29 118.047H1141.11C1141.11 117.453 1140.86 116.941 1140.35 116.512C1139.85 116.082 1139.22 115.867 1138.45 115.867C1137.66 115.867 1137.05 116.039 1136.6 116.383C1136.16 116.727 1135.93 117.176 1135.93 117.73C1135.93 118.254 1136.14 118.648 1136.55 118.914C1136.97 119.18 1137.71 119.434 1138.79 119.676C1139.88 119.918 1140.76 120.207 1141.43 120.543C1142.1 120.879 1142.6 121.285 1142.92 121.762C1143.25 122.23 1143.41 122.805 1143.41 123.484C1143.41 124.617 1142.96 125.527 1142.05 126.215C1141.14 126.895 1139.97 127.234 1138.52 127.234C1137.51 127.234 1136.61 127.055 1135.83 126.695C1135.05 126.336 1134.43 125.836 1133.99 125.195C1133.55 124.547 1133.33 123.848 1133.33 123.098H1135.5C1135.54 123.824 1135.83 124.402 1136.37 124.832C1136.91 125.254 1137.63 125.465 1138.52 125.465C1139.34 125.465 1140 125.301 1140.49 124.973C1140.99 124.637 1141.24 124.191 1141.24 123.637ZM1161.12 121.27H1163.48V123.039H1161.12V127H1158.94V123.039H1151.17V121.762L1158.81 109.938H1161.12V121.27ZM1153.63 121.27H1158.94V112.902L1158.68 113.371L1153.63 121.27Z"/><rect id="r1" width="258" height="56" x="118" y="176" fill="#000" rx="5"/><rect id="r2" width="258" height="56" x="117" y="252" fill="#000" rx="5"/><rect id="r3" width="258" height="56" x="118" y="328" fill="#000" rx="5"/><rect id="r4" width="258" height="56" x="117" y="404" fill="#000" rx="5"/><rect id="r5" width="258" height="56" x="118" y="480" fill="#000" rx="5"/><rect id="r6" width="258" height="56" x="117" y="556" fill="#000" rx="5"/><rect id="r7" width="258" height="56" x="118" y="632" fill="#000" rx="5"/><rect id="r8" width="258" height="56" x="118" y="708" fill="#000" rx="5"/><rect id="r9" width="258" height="56" x="118" y="784" fill="#000" rx="5"/><rect id="r10" width="258" height="56" x="117" y="860" fill="#000" rx="5"/><rect id="r11" width="258" height="56" x="434" y="176" fill="#000" rx="5"/><rect id="r12" width="258" height="56" x="433" y="252" fill="#000" rx="5"/><rect id="r13" width="258" height="56" x="434" y="328" fill="#000" rx="5"/><rect id="r14" width="258" height="56" x="433" y="404" fill="#000" rx="5"/><rect id="r15" width="258" height="56" x="434" y="480" fill="#000" rx="5"/><rect id="r16" width="258" height="56" x="433" y="556" fill="#000" rx="5"/><rect id="r17" width="258" height="56" x="434" y="632" fill="#000" rx="5"/><rect id="r18" width="258" height="56" x="434" y="708" fill="#000" rx="5"/><rect id="r19" width="258" height="56" x="434" y="784" fill="#000" rx="5"/><rect id="r20" width="258" height="56" x="433" y="860" fill="#000" rx="5"/><rect id="r21" width="258" height="56" x="749" y="176" fill="#000" rx="5"/><rect id="r22" width="258" height="56" x="748" y="252" fill="#000" rx="5"/><rect id="r23" width="258" height="56" x="749" y="328" fill="#000" rx="5"/><rect id="r24" width="258" height="56" x="748" y="404" fill="#000" rx="5"/><rect id="r25" width="258" height="56" x="749" y="480" fill="#000" rx="5"/><rect id="r26" width="258" height="56" x="748" y="556" fill="#000" rx="5"/><rect id="r27" width="258" height="56" x="749" y="632" fill="#000" rx="5"/><rect id="r28" width="258" height="56" x="749" y="708" fill="#000" rx="5"/><rect id="r29" width="258" height="56" x="749" y="784" fill="#000" rx="5"/><rect id="r30" width="258" height="56" x="748" y="860" fill="#000" rx="5"/><rect id="r31" width="258" height="56" x="1065" y="176" fill="#000" rx="5"/><rect id="r32" width="258" height="56" x="1064" y="252" fill="#000" rx="5"/><rect id="r33" width="258" height="56" x="1065" y="328" fill="#000" rx="5"/><rect id="r34" width="258" height="56" x="1064" y="404" fill="#000" rx="5"/><rect id="r35" width="258" height="56" x="1065" y="480" fill="#000" rx="5"/><rect id="r36" width="258" height="56" x="1064" y="556" fill="#000" rx="5"/><rect id="r37" width="258" height="56" x="1065" y="632" fill="#000" rx="5"/><rect id="r38" width="258" height="56" x="1065" y="708" fill="#000" rx="5"/><rect id="r39" width="258" height="56" x="1065" y="784" fill="#000" rx="5"/><rect id="r40" width="258" height="56" x="1064" y="860" fill="#000" rx="5"/></svg>